<?xml version="1.0" encoding="utf-8"?>
<!-- Generator: Adobe Illustrator 18.1.1, SVG Export Plug-In . SVG Version: 6.00 Build 0)  -->
<svg version="1.1" id="Layer_1" xmlns="http://www.w3.org/2000/svg" xmlns:xlink="http://www.w3.org/1999/xlink" x="0px" y="0px"
	 viewBox="0 0 1024 768" enable-background="new 0 0 1024 768" xml:space="preserve">
<defs>
	
	<script  language="JavaScript" xlink:href="svg.js"></script>
</defs>
<script  type="text/JavaScript">
	<![CDATA[
function notify( ref, type ) {
    var event = document.createEvent("CustomEvent");
    event.initEvent(type,true,true);
    ref.dispatchEvent(event);
}

		
		
		
		
		
		
		
		
		
		
		
		
		]]>
</script>
<g>
	<g>
		<g>
			<path fill="#EA8E10" d="M674.242,56.542c-45.154-6.801-103.596-10.905-167.494-10.905c-58.98,0-113.29,3.494-156.81,9.379v82.226
				H228.612v315.898h566.942V138.767H674.238V56.542H674.242z"/>
		</g>
		<path fill="#231F20" d="M674.242,162.383V56.877c62.043,10.766,102.222,27.72,102.222,46.857c10.529,0,19.094,8.806,19.094,19.68
			v38.967H674.242z"/>
		<path fill="#231F20" d="M349.928,160.693V55.185c-62.043,10.77-102.218,27.723-102.218,46.861
			c-10.532,0-19.104,8.799-19.104,19.677v38.967L349.928,160.693L349.928,160.693z"/>
	</g>
	<path fill="#F5A909" d="M827.127,450.382c-14.331-14.328-43.34-15.305-64.94-27.496c-86.68-48.998-146.749-64.547-248.167-64.547
		c-0.638,0-1.292,0.007-1.927,0.014c-0.638-0.003-1.306-0.014-1.93-0.014c-101.418,0-161.48,15.549-248.163,64.547
		c-21.597,12.201-50.619,13.181-64.944,27.496c-40.857,40.86-14.901,128.829-14.901,128.829c0,2.357,1.883,4.233,4.209,4.233H512.08
		h325.725c2.334,0,4.22-1.876,4.22-4.233C842.025,579.207,867.99,491.242,827.127,450.382z"/>
	<path fill="#F5A909" d="M590.469,48.143c0-9.705-31.553-31.637-78.824-31.637c-47.224,0-77.945,21.933-77.945,31.637"/>
	<path fill="#231F20" d="M837.025,583.44h-62.769H639.104H382.227H249.103h-61.945c-2.473,0-4.447,2.815-4.447,6.313l11.943,28.819
		c0,3.657,1.906,6.672,4.247,6.672h45.467v88.637c0,2.897,2.12,5.254,4.732,5.254h133.123c2.605,0,4.725-2.354,4.725-5.254v-55.398
		h247.4v55.398c0,2.897,2.1,5.254,4.762,5.254h135.151c2.642,0,4.742-2.354,4.742-5.254v-88.637h46.23
		c2.371,0,4.294-3.016,4.294-6.672l11.933-28.819C841.451,586.259,839.443,583.44,837.025,583.44z"/>
	<path fill="#12100B" stroke="#4D4947" stroke-width="6" d="M656.115,527.265c0,13.232-10.726,23.958-23.958,23.958H392.016
		c-13.236,0-23.961-10.726-23.961-23.958v-90.092c0-13.253,10.726-23.978,23.961-23.978h240.138
		c13.232,0,23.958,10.726,23.958,23.978v90.092H656.115z"/>
	<path fill="#D0D0D0" stroke="#231F20" stroke-width="4" d="M828.063,501.265c0,28.581-23.123,51.755-51.749,51.755
		c-28.527,0-51.721-23.167-51.721-51.755c0-28.574,23.195-51.745,51.721-51.745C804.94,449.524,828.063,472.691,828.063,501.265z"/>
	<path fill="#FFFFFF" stroke="#231F20" stroke-width="2" d="M808.359,501.265c0,17.696-14.321,32.031-32.027,32.031
		c-17.662,0-32.017-14.345-32.017-32.031c0-17.686,14.355-32.024,32.017-32.024C794.038,469.238,808.359,483.579,808.359,501.265z"
		/>
	<path fill="#D0D0D0" stroke="#231F20" stroke-width="4" d="M299.577,501.265c0,28.581-23.123,51.755-51.759,51.755
		c-28.523,0-51.721-23.167-51.721-51.755c0-28.574,23.198-51.745,51.721-51.745C276.443,449.524,299.577,472.691,299.577,501.265z"
		/>
	<path fill="#FFFFFF" stroke="#231F20" stroke-width="2" d="M279.855,501.265c0,17.696-14.318,32.031-32.031,32.031
		c-17.662,0-32.014-14.345-32.014-32.031c0-17.686,14.348-32.024,32.014-32.024C265.545,469.238,279.855,483.579,279.855,501.265z"
		/>
	<line fill="none" stroke="#4D4947" stroke-width="5" x1="375.073" y1="469.771" x2="649.1" y2="469.771"/>
	<line fill="none" stroke="#4D4947" stroke-width="5" x1="375.073" y1="441.345" x2="649.1" y2="441.345"/>
	<line fill="none" stroke="#4D4947" stroke-width="5" x1="375.073" y1="498.199" x2="649.1" y2="498.199"/>
	<line fill="none" stroke="#4D4947" stroke-width="5" x1="375.073" y1="526.624" x2="649.1" y2="526.624"/>
	<path fill="#FFFFFF" d="M496.13,311.363c0,2.334-1.883,4.237-4.22,4.237h-239.86c-2.334,0-4.226-1.906-4.226-4.237V194.59
		c0-2.334,1.9-4.24,4.226-4.24h239.86c2.337,0,4.22,1.906,4.22,4.24V311.363z"/>
	<path fill="#FFFFFF" d="M776.321,311.363c0,2.334-1.886,4.237-4.213,4.237H532.289c-2.347,0-4.287-1.906-4.287-4.237V194.59
		c0-2.334,1.923-4.24,4.287-4.24h239.819c2.334,0,4.213,1.906,4.213,4.24V311.363z"/>
	<g>
		<path fill="#231F20" d="M200.109,293.606c0,2.313-1.862,4.216-4.193,4.216H138.89c-2.32,0-4.233-1.906-4.233-4.216v-81.547
			c0-2.337,1.913-4.216,4.233-4.216h57.023c2.337,0,4.193,1.879,4.193,4.216v81.547H200.109z"/>
		<path fill="none" stroke="#13110C" stroke-width="6" d="M167.39,297.822c0,19.548,27.116,35.335,60.67,35.335"/>
	</g>
	<g>
		<path fill="#231F20" d="M823.887,293.606c0,2.313,1.917,4.216,4.209,4.216h57.027c2.296,0,4.213-1.906,4.213-4.216v-81.547
			c0-2.337-1.917-4.216-4.213-4.216h-57.027c-2.293,0-4.209,1.879-4.209,4.216V293.606z"/>
		<path fill="none" stroke="#13110C" stroke-width="6" d="M856.624,297.822c0,19.548-27.116,35.335-60.659,35.335"/>
	</g>
	<path fill="#E30613" stroke="#DD1215" stroke-width="0.2339" d="M692.637,117.642c0,19.898,16.061,35.983,35.942,35.983
		c19.857,0,35.966-16.085,35.966-35.983c0-19.806-16.105-35.942-35.966-35.942C708.705,81.7,692.637,97.836,692.637,117.642z"/>
	<path fill="#E30613" stroke="#DD1215" stroke-width="0.2339" d="M255.443,117.642c0,19.898,16.092,35.983,35.901,35.983
		c19.887,0,35.999-16.085,35.999-35.983c0-19.806-16.112-35.942-35.999-35.942C271.535,81.7,255.443,97.836,255.443,117.642z"/>
	<g>
		<path d="M357.085,81.856c3.233-0.587,8.344-1.028,13.531-1.028c7.405,0,12.167,1.099,15.749,3.596
			c2.978,1.906,4.756,4.84,4.756,8.728c0,4.769-3.657,8.948-9.691,10.854v0.146c5.441,1.174,11.818,5.061,11.818,12.394
			c0,4.254-1.95,7.483-4.851,9.901c-3.999,3.155-10.464,4.62-19.826,4.62c-5.105,0-9.019-0.292-11.496-0.587L357.085,81.856
			L357.085,81.856z M364.486,102.096h6.713c7.839,0,12.425-3.521,12.425-8.287c0-5.794-5.105-8.066-12.595-8.066
			c-3.402,0-5.359,0.22-6.553,0.441L364.486,102.096L364.486,102.096z M364.486,125.786c1.448,0.22,3.575,0.295,6.211,0.295
			c7.659,0,14.721-2.422,14.721-9.61c0-6.747-6.72-9.535-14.803-9.535h-6.129L364.486,125.786L364.486,125.786z"/>
		<path d="M410.611,81.195v29.263c0,11.075,5.705,15.766,13.358,15.766c8.511,0,13.948-4.84,13.948-15.766V81.195h7.486v28.825
			c0,15.183-9.267,21.414-21.695,21.414c-11.743,0-20.59-5.794-20.59-21.122V81.195H410.611z"/>
		<path d="M457.244,122.852c3.321,1.76,8.168,3.229,13.273,3.229c7.571,0,11.998-3.45,11.998-8.436c0-4.62-3.063-7.262-10.814-9.827
			c-9.362-2.859-15.145-7.042-15.145-14.009c0-7.703,7.408-13.422,18.551-13.422c5.868,0,10.122,1.174,12.676,2.422l-2.045,5.207
			c-1.876-0.882-5.709-2.347-10.892-2.347c-7.836,0-10.814,4.033-10.814,7.408c0,4.62,3.487,6.893,11.401,9.535
			c9.694,3.226,14.626,7.259,14.626,14.521c0,7.629-6.553,14.23-20.081,14.23c-5.532,0-11.57-1.394-14.626-3.155L457.244,122.852z"
			/>
		<path d="M517.744,108.405v4.766h-21.01v-4.766C496.734,108.405,517.744,108.405,517.744,108.405z"/>
		<path d="M526.767,81.856c3.233-0.587,8.341-1.028,13.531-1.028c7.401,0,12.167,1.099,15.742,3.596
			c2.978,1.906,4.762,4.84,4.762,8.728c0,4.769-3.657,8.948-9.694,10.854v0.146c5.444,1.174,11.821,5.061,11.821,12.394
			c0,4.254-1.954,7.483-4.851,9.901c-4.003,3.155-10.468,4.62-19.83,4.62c-5.108,0-9.019-0.292-11.492-0.587L526.767,81.856
			L526.767,81.856z M534.175,102.096h6.72c7.832,0,12.425-3.521,12.425-8.287c0-5.794-5.108-8.066-12.595-8.066
			c-3.406,0-5.359,0.22-6.557,0.441L534.175,102.096L534.175,102.096z M534.175,125.786c1.452,0.22,3.579,0.295,6.211,0.295
			c7.659,0,14.721-2.422,14.721-9.61c0-6.747-6.716-9.535-14.799-9.535h-6.133L534.175,125.786L534.175,125.786z"/>
		<path d="M612.969,129.012c-2.724,1.174-8.168,2.347-15.145,2.347c-16.173,0-28.34-8.802-28.34-25.009
			c0-15.474,12.167-25.962,29.948-25.962c7.147,0,11.662,1.319,13.619,2.201l-1.784,5.207c-2.805-1.174-6.808-2.052-11.57-2.052
			c-13.446,0-22.381,7.408-22.381,20.389c0,12.099,8.083,19.874,22.038,19.874c4.508,0,9.108-0.807,12.082-2.052L612.969,129.012z"
			/>
		<path d="M622.249,130.627V81.195h8.087l18.378,25.009c4.254,5.794,7.568,11.004,10.295,16.061l0.173-0.071
			c-0.682-6.601-0.851-12.615-0.851-20.315V81.195h6.981v49.432h-7.486l-18.208-25.081c-4.006-5.502-7.836-11.15-10.719-16.502
			l-0.254,0.071c0.424,6.235,0.597,12.174,0.597,20.389v21.122H622.249L622.249,130.627z"/>
	</g>
	<g>
		<path fill="#C92040" d="M630.668,315.631c0.149-0.926-0.315-1.859,0.041-2.781c0.726-3.053,0.909-6.194,1.56-9.264
			c0.865-4.091,2.181-8.032,3.48-11.987c0.604-1.832,1.635-2.639,3.585-2.476c2.968,0.251,5.763-0.594,8.483-1.71
			c0.38-0.197,0.773-0.37,1.163-0.55c1.174-0.573,1.737-0.139,2.344,1.018c1.404,2.673,4.328,3.019,5.587,0.499
			c1.157-2.32,2.649-2.334,4.617-1.893c3.246,0.353,6.503,0.248,9.742,0.081c2.201-0.112,2.195-0.237,2.456,1.903
			c0.19,1.55,1.445,3.212,2.639,3.294c1.584,0.112,2.483-0.858,3.032-2.242c0.254-0.641,0.478-1.398,1.36-1.238
			c1.038,0.19,0.729,1.069,0.824,1.798c0.312,2.432,0.841,4.83,0.889,7.3c0.061,3.087-0.146,6.14-0.777,9.165
			c-0.105,0.502-0.393,1.055,0.014,1.574c0.926,1.574,1.967,3.09,2.242,4.969c0.129,0.879,0.349,1.747-0.258,2.541
			c-9.108,0-18.219,0-27.326,0c0.543-1.513,1.326-2.927,1.489-4.586c0.115-1.14,1.14-0.967,1.937-0.96
			c3.134,0.031,6.106-0.607,8.901-2.008c-2.724,1.343-5.614,2.066-8.656,1.964c-1.462-0.047-2.29,0.271-2.391,1.93
			c-0.088,1.387-0.777,2.602-1.686,3.66C647.526,315.631,639.097,315.631,630.668,315.631z"/>
		<path fill="#1F1E1B" d="M662.858,194.217c3.612-0.862,7.293-0.529,10.946-0.58c1.102-0.017,1.995-0.142,2.134-1.479
			c0.814,0,1.632,0,2.446,0c0.516,1.377,1.57,1.862,2.954,1.961c1.547,0.109,3.083,0.329,4.62,0.533
			c0.475,0.061,1.187-0.115,1.065,0.797c-1.377,0.838-2.761,0.085-4.132-0.027c-1.065-0.088-1.937-0.21-1.764,1.323
			c0.058,0.526,0.044,1.177-0.685,1.262c-0.59,0.068-0.8-0.478-0.923-0.923c-0.512-1.886-1.872-2.324-3.585-2.269
			c-3.711,0.115-7.432-0.237-11.136,0.268C664.062,195.177,663.13,195.36,662.858,194.217z"/>
		<path fill="#28040C" d="M655.955,315.631c0.638-1.625,1.557-3.158,1.611-4.976c0.024-0.767,0.57-0.834,1.14-0.821
			c3.785,0.102,7.371-0.712,10.773-2.374c0.146-0.071,0.37,0.014,0.946,0.054c-3.423,1.923-6.723,2.9-10.281,2.846
			c-1.34-0.02-2.154,0.163-2.205,1.808c-0.041,1.292-0.773,2.435-1.577,3.463C656.227,315.631,656.091,315.631,655.955,315.631z"/>
		<path fill="#381921" d="M683.689,315.631c0.366-2.714-0.753-4.99-2.072-7.208c-0.163-0.251-0.132-0.482,0.085-0.685
			c1.906,2.279,2.863,4.901,2.805,7.893C684.231,315.631,683.96,315.631,683.689,315.631z"/>
		<path fill="#FDE2B5" d="M662.858,194.217c0.431,0.739,1.109,0.349,1.638,0.288c4.053-0.465,8.117-0.176,12.174-0.258
			c2.184-0.044,3.246,0.821,3.406,2.965c0.017,0.244,0.031,0.566,0.549,0.651c0.305-1.082-0.397-1.995-0.519-3.168
			c2.361-0.129,4.63,0.475,6.923,0.75c1.191-0.634,2.374,0.349,3.562,0.02c0.831,0.675,1.95,0.505,2.849,0.987
			c0.329,0.071,0.651,0.166,0.98,0.231c2.263,0.438,2.497,0.729,2.513,3.097c0.003,0.407,0,0.814,0.003,1.218
			c0.261,1.248,0.468,2.503,0.417,3.789c0.058-1.245-0.122-2.466-0.373-3.684c-0.085-3.596-0.071-3.616,3.178-2.052
			c2.435,1.174,4.759,2.551,7.032,4.02c1.072,1.109,2.571,1.587,3.735,2.558c1.381,1.323,0.624,2.978,0.58,4.474
			c-0.027,0.967-0.339,1.981-0.763,2.907c-0.078,0.265,0.461,0.024,0.193,0.068c-0.047,0.007-0.071-0.058-0.027-0.18
			c0.617-1.808,0.573-3.735,0.99-5.576c1.618,0.475,2.697,1.703,3.718,2.91c1.954,2.313,3.986,4.559,5.875,6.927
			c0.712,1.031,1.106,2.134,0.702,3.412c-0.048,0.254,0.112,0.19,0.102,0.085c-0.105-0.974,0.176-1.357,1.041-0.553
			c1.621,2.703,3.097,5.492,4.61,8.256c0.885,1.659,2.127,3.168,2.161,5.19c-0.59,0.892-0.034,1.126,0.712,1.258
			c0.784,1.889,1.52,3.796,2.147,5.743c0.241,0.75,0.505,1.296,1.452,1.431c2.999,0.434,4.094,1.828,3.914,4.739
			c-0.176,2.876-1.818,4.579-4.521,4.691c-2.527-1.431-4.298-0.485-5.95,1.659c-1.106,1.438-2.469,2.703-3.88,3.88
			c-5.078,4.325-10.654,7.893-16.563,10.929c-3.083,1.584-6.357,2.707-9.698,3.619c-0.187,0.075-0.377,0.132-0.567,0.187
			c-0.94,0.312-1.933,0.39-2.88,0.672c-1.136,0.305-2.313,0.438-3.423,0.862c-0.278,0.146-0.566,0.261-0.875,0.315
			c-1.184-0.092-2.368-0.248-3.528,0.197c-5.539,0.064-11.078,0.373-16.597-0.312c-0.695,0.027-1.391,0.139-2.086,0.034
			c-2.388-0.838-4.942-0.767-7.381-1.33c-3.402-0.702-6.777-1.526-10.139-2.402c-0.533-0.02-1.055-0.109-1.547-0.322
			c-0.77-0.56-1.635-0.902-2.537-1.174c-2.781-0.834-5.285-2.242-7.724-3.789c-1.615-0.845-3.036-2.059-4.803-2.622
			c-0.427-0.729-1.214-0.984-1.855-1.431c-1.883-1.462-3.735-2.965-5.665-4.359c-2.785-2.771-5.621-5.492-8.263-8.409
			c-1.635-2.252-3.456-4.366-4.857-6.784c-0.366-0.631-0.706-0.726-1.459-0.488c-3.158,1.004-5.448-0.149-6.469-3.114
			c-1.079-3.131,0.244-6.241,3.158-7.408c1.482-0.132,3.016-0.648,3.975,0.319c-0.027-0.02-0.434-0.271-0.485-0.811
			c1.357-2.988,3.484-5.488,5.149-8.283c0.78-1.309,1.879-1.479,3.104-0.617c0.712,0.502,1.448,0.95,2.232,1.33
			c-0.356-0.275-0.807-0.383-1.167-0.638c-3.178-2.235-3.165-1.052-0.631-4.264c2.229-2.826,5.003-5.2,7.537-7.771
			c1.764-1.791,2.324-1.703,4.216,0.017c0.404,0.366,0.78,0.76,1.153,1.16c-0.485-0.539-0.984-1.072-1.537-1.54
			c-1.408-1.201-1.421-1.54,0.092-2.625c3.65-2.619,7.595-4.728,11.584-6.76c0.984-0.502,1.747-0.604,2.578,0.553
			c0.936,1.303,2.103,2.452,2.649,3.256c-0.485-0.651-1.326-1.852-2.374-2.897c-0.834-0.831-0.943-1.618,0.444-2.113
			c1.208-0.434,2.391-0.933,3.646-1.235c1.421-0.611,3.026-0.661,4.389-1.448c0.081-0.064,0.163-0.071,0.254-0.024
			c0.753,0.305,1.401-0.061,2.069-0.319c1.604-0.621,2.978-0.465,3.897,1.191c0.739,1.116,1.598,2.144,2.385,3.219
			c-0.736-1.014-1.52-1.995-2.222-3.032c-0.149-0.597-1.703-1.167-0.034-1.801C661.641,194.325,662.21,194.118,662.858,194.217z"/>
		<path fill="#FEE488" d="M697.169,271.182c0.075-0.024,0.149-0.027,0.224-0.014c2.819-0.187,5.285-1.526,7.873-2.463
			c0.987-0.356,1.917-0.672,2.883-0.02c1.533,0.295,3.066,0.59,4.6,0.889c2.9,1.455,6.092,2.208,8.941,3.802
			c1.065,0.597,2.117,1.221,3.172,1.832c1.164,0.672,1.164,1.435,0.071,2.157c-1.594,1.055-3.053,2.252-4.383,3.643
			c-1.883,1.967-2.927,4.254-2.798,7.005c0.078,1.625-0.546,2.011-1.947,1.306c-0.353,0.122-0.702,0.244-1.055,0.366
			c-2.422-0.96-5.024-0.709-7.53-1.109c-7.937-0.695-15.871-0.604-23.805-0.007c-1.018,0.21-1.777,0.163-1.404-1.255
			c0.119-0.448,0.217-0.912,0.251-1.384c0.01-1.533,0.003-3.07-0.058-4.603c-0.126-0.265-0.499,0.068-0.248-0.037
			c0.109-0.047,0.17-0.02,0.187,0.081c0.241,1.54,0.061,3.09,0.102,4.633c-0.407,0.733,0.234,2.14-1.255,2.161
			c-1.17,0.017-2.045-1.194-1.825-2.724c0.488-3.382,0.821-6.774,1.146-10.173c0.098-1.045,0.624-1.509,1.699-1.635
			c1.954-0.231,3.931-0.027,5.872-0.38c0.773-0.237,1.581,0.519,2.344-0.081c0.109-0.115,0.221-0.231,0.329-0.346
			c1.272,0.024,2.469-0.383,3.697-0.617C695.204,271.806,696.368,272.016,697.169,271.182z"/>
		<path fill="#FDE2B5" d="M732.914,283.454c0.183,0.166,0.363,0.332,0.546,0.499c1.177,0.77,2.527,0.176,3.765,0.495
			c2.374,0.756,2.154,2.731,2.123,4.613c-0.353,0.821-1.136,1.211-1.822,0.923c-1.574-0.668-3.199-0.475-4.807-0.628
			c-1.38-0.132-1.425-0.275-0.984-1.835c-0.946,2.558-3.131,3.494-5.509,4.06c0.203,1.102,0.957,1.34,1.628,1.615
			c0.75,0.309,1.659,0.441,1.703,1.492c0.048,1.13-0.556,1.933-1.465,2.537c-0.719,0.478-1.513,0.56-2.34,0.505
			c-1.347,0.393-2.324-0.38-3.199-1.174c-1.028-0.933-2.11-1.845-2.792-3.107c-4.179-6.211-2.1-10.814,3.127-14.911
			c1.455-1.143,2.934-2.422,4.874-2.778c2.249-0.444,4.505-0.96,6.441,0.889c0.831,0.441,1.533,1.075,2.293,1.618
			c1.503,1.075,1.506,1.567,0.319,3.304c-1.007,0.546-2.106,0.319-3.158,0.288C732.021,281.805,732.103,282.426,732.914,283.454z"/>
		<path fill="#261310" d="M682.4,285.998c0.678,0.661-1.252,2.283,0.872,2.415c0.098,0.092,0.132,0.183,0.102,0.278
			c-0.031,0.095-0.061,0.142-0.095,0.142c-1.876,0.126-1.421,1.404-1.194,2.52c1.126,5.495,1.041,10.956-0.38,16.387
			c-0.027,0.227-0.058,0.455-0.085,0.685c-1.058-1.326-0.01-2.646,0.142-3.904c0.546-4.45,0.553-8.85-0.353-13.246
			c-0.014-0.068-0.027-0.139-0.061-0.193c-0.485-0.777,0.614-2.273-0.692-2.435c-0.963-0.119-0.57,1.438-1.13,2.103
			c-0.98,1.163-2.059,2.079-3.66,1.516c-1.801-0.634-2.887-2.113-2.622-3.935c0.278-1.889-0.539-1.374-1.601-1.275
			c-3.501,0.322-7.011,0.57-10.498-0.176c0.539-0.685,1.326-0.566,2.052-0.648c2.564-0.112,5.136,0.146,7.7-0.2
			c1.791-0.241,2.754-1.011,2.9-2.988c0.153-2.042,0.36-4.074,0.326-6.126c-0.041-2.466-0.051-2.456-2.452-2.686
			c-0.95-0.092-2.154,0.119-2.279-1.394c5.817,0.611,11.645,0.475,17.476,0.322c0.465,0.017,1.123-0.539,1.269,0.431
			c-2.035,0.115-4.067,0.292-6.102,0.319c-0.957,0.014-1.275,0.254-1.289,1.269c-0.054,3.358-0.349,6.703-1.055,9.996
			c-0.312,1.448,0.234,2.378,1.638,2.863c0.675-0.536,0.207-1.462,0.702-2.035C682.149,285.821,682.271,285.818,682.4,285.998z"/>
		<path fill="#2F2B24" d="M725.699,297.592c0.97-0.031,1.855-0.285,2.612-0.94c1.404-1.218,1.231-2.201-0.488-2.883
			c-0.56-0.22-1.109-0.519-1.591-0.879c-0.482-0.36-1.085-0.817-0.997-1.459c0.125-0.902,0.987-0.448,1.509-0.543
			c2.809-0.509,4.447-2.364,5.519-5.21c0.614,1.428-0.56,2.028-0.516,3.097c2.042,0.295,4.267-0.336,6.197,0.916
			c0.183,0.119,0.702-0.285,1.065-0.444c0.163-0.159,0.312-0.142,0.441,0.041c-1.15,1.007-1.883,2.266-2.598,3.629
			c-1.204,2.296-3.857,2.897-6.784,1.859c-0.807,2.568-1.835,3.297-4.369,3.094C725.699,297.775,725.699,297.683,725.699,297.592z"
			/>
		<path fill="#302D21" d="M727.72,276.029c-2.914,1.208-5.424,3.019-7.503,5.383c-3.002,3.406-3.032,6.92-0.234,12.011
			c0.193,0.39-0.01,0.434-0.326,0.387c-0.132-0.149-0.302-0.282-0.393-0.451c-0.865-1.598-1.506-3.385-3.46-4.033
			c1.238,0.21,1.645-0.014,1.469-1.537c-0.346-2.971,1.106-5.387,3.124-7.456c1.554-1.594,3.365-2.859,5.427-4.087
			c-3.653-2.49-7.432-4.206-11.39-5.583c-0.59-0.204-1.628,0.051-1.686-1.082c4.413,1.055,8.439,3.009,12.306,5.346
			c0.685,0.414,1.299,0.994,2.198,0.75C727.653,275.452,727.741,275.666,727.72,276.029z"/>
		<path fill="#2C2922" d="M708.145,268.688c-3.083-0.193-5.57,1.75-8.419,2.364c-0.729,0.159-1.52,1.136-2.334,0.115
			c9.905-2.954,18.737-7.886,26.604-14.62c0.21,0.166,0.234,0.356,0.071,0.57c-4.583,4.155-9.698,7.513-15.196,10.295
			C708.338,267.681,707.48,267.739,708.145,268.688z"/>
		<path fill="#33312C" d="M733.432,251.104c1.703,0.214,3.172-0.292,3.884-1.903c0.814-1.838,1.089-3.799,0.003-5.685
			c-0.58-1.007-1.594-1.286-2.619-1.208c-1.194,0.092-1.665-0.485-2.005-1.509c-0.685-2.056-1.452-4.084-2.184-6.123
			c-0.119-0.156-0.18-0.332-0.18-0.529c0.041-0.193,0.136-0.353,0.285-0.478c0.58,1.377,1.153,2.754,1.744,4.125
			c0.804,1.879,0.936,4.04,3.955,4.264c2.208,0.163,2.982,3.545,1.964,6.638c-0.821,2.5-2.832,3.548-5.38,2.805
			C732.978,251.23,733.236,251.206,733.432,251.104z"/>
		<path fill="#393523" d="M683.275,288.83c-0.003-0.139-0.003-0.278-0.007-0.417c5.427-0.729,10.885-0.702,16.333-0.526
			c2.612,0.085,5.261-0.136,7.842,0.526c-0.197,0.376-0.644,0.173-0.906,0.393C698.783,288.287,691.029,288.42,683.275,288.83z"/>
		<path fill="#24221E" d="M707.273,203.507c-3.185-1.995-6.35-4.023-10.112-5.312c0,1.133,0,2.073,0,3.016
			c-0.112,0.122-0.22,0.122-0.329-0.007c0.332-2.836-1.099-4.223-3.731-4.617c-0.041-0.404,0.115-0.546,0.499-0.383
			c1.927-0.655,3.066,0.96,4.549,1.594c3.243,1.391,6.36,3.005,9.189,5.142C707.504,203.155,707.48,203.341,707.273,203.507z"/>
		<path fill="#363430" d="M721.035,217.316c-2.666-3.555-5.573-6.893-8.833-9.908c0.203-0.19,0.421-0.21,0.658-0.064
			c2.283,1.74,4.07,3.975,5.956,6.109c0.689,0.78,1.184,1.618,2.466,1.866c1.174,0.227,1.218,1.621,1.079,2.761
			C721.679,218.242,721.581,217.381,721.035,217.316z"/>
		<path fill="#312D27" d="M733.432,251.104c-0.176,0.132-0.353,0.261-0.533,0.393c-1.801-1.096-2.92-0.139-4.101,1.201
			c-1.428,1.621-2.985,3.138-4.739,4.42c-0.024-0.19-0.047-0.38-0.071-0.57c2.039-2.344,4.959-3.914,6.326-7.072
			C731.163,250.073,732.184,250.829,733.432,251.104z"/>
		<path fill="#262523" d="M730.617,233.669c-0.027,0.129-0.034,0.261-0.024,0.39c-0.533,0.4-0.845,0.319-0.875-0.4
			c-0.153-1.954-1.57-3.426-1.988-5.278c-0.224-0.393,0.003-0.421,0.309-0.387c0.125,0.678,1.74-0.19,1.201,1.18
			c-0.139,0.427,0.112,0.722,0.37,1.089c-0.17-0.421-0.173-0.78-0.034-1.136c1.136,0.112,0.974,1.031,1.021,1.757
			C730.661,231.807,730.617,232.74,730.617,233.669z"/>
		<path fill="#24221D" d="M712.86,207.34c-0.22,0.02-0.438,0.044-0.658,0.064c-0.268,1.645-0.485,3.304-0.838,4.932
			c-0.122,0.566-0.051,1.357-1.045,1.781c0.376-2.14,1.082-4.023,1.062-6.038c-0.01-0.879-0.17-1.598-0.848-2.164
			c-0.309-0.794-0.173-1.33,0.787-1.398C711.978,205.38,711.859,206.672,712.86,207.34z"/>
		<path fill="#45423B" d="M728.039,227.994c-0.102,0.129-0.204,0.258-0.309,0.387c-1.506-2.659-3.012-5.319-4.515-7.978
			c-0.119-0.231-0.109-0.455,0.034-0.675C725.197,222.279,726.642,225.125,728.039,227.994z"/>
		<path fill="#332F29" d="M732.914,283.454c-1.041-0.353-1.316-1.214-1.547-2.313c1.862,0.397,3.606,0.526,5.359,0.509
			c0.132,0.061,0.18,0.126,0.139,0.193c-0.041,0.068-0.085,0.105-0.129,0.105c-0.963,0.604-2.062,0.319-3.029,0.227
			C732.239,282.036,732.893,282.864,732.914,283.454z"/>
		<path fill="#36332D" d="M727.72,276.029c-0.159-0.119-0.315-0.237-0.475-0.356c2.608-0.821,5.159-1.174,7.411,0.919
			c0.058,0.343,0.017,0.57-0.407,0.36C732.262,275.293,729.993,275.652,727.72,276.029z"/>
		<path fill="#27251E" d="M706.537,288.806c0.302-0.132,0.604-0.261,0.906-0.393c2.11,0.173,4.223,0.346,6.333,0.522
			c0.475,0.041,0.946,0.105,0.97,0.75C712.012,289.393,709.275,289.098,706.537,288.806z"/>
		<path fill="#302E29" d="M719.654,293.806c0.109-0.129,0.217-0.258,0.326-0.387c1.645,1.754,2.965,3.962,5.719,4.169
			c0,0.092,0,0.183,0,0.275c-0.56,0.549-1.079,0.455-1.737,0.075C722.174,296.917,720.76,295.533,719.654,293.806z"/>
		<path fill="#423E37" d="M734.25,276.948c0.136-0.119,0.271-0.241,0.407-0.36c0.719,0.492,1.459,0.957,2.157,1.479
			c1.642,1.235,1.611,2.439-0.075,3.877c-0.041-0.098-0.044-0.197-0.01-0.295c0.929-1.479,0.74-2.636-0.885-3.484
			C735.257,277.86,734.779,277.358,734.25,276.948z"/>
		<path fill="#2A2824" d="M711.323,204.522c-0.553,0.299-0.743,0.807-0.787,1.398c-1.089-0.804-2.174-1.608-3.263-2.412
			c0.024-0.19,0.044-0.377,0.068-0.566C708.352,204.274,710.218,203.423,711.323,204.522z"/>
		<path fill="#2D2C2B" d="M723.253,219.731c-0.01,0.224-0.024,0.448-0.034,0.672c-1.292-0.529-0.495,0.621-0.702,0.943
			c-0.187,0.288,0.017,0.923-0.6,0.787c-0.404-0.092-0.278-0.475-0.156-0.821c0.519-1.465,0.115-2.775-0.726-3.999
			c0.675-0.159,0.953,0.387,1.326,0.763C722.656,218.629,722.955,219.179,723.253,219.731z"/>
		<path fill="#4B4841" d="M737.13,284.726c-1.231-0.22-2.683,0.631-3.67-0.773c1.36,0.353,2.819-0.495,4.138,0.349
			C737.54,284.556,737.286,284.587,737.13,284.726z"/>
		<path fill="#24221D" d="M737.13,284.726c0.156-0.142,0.312-0.285,0.468-0.424c2.025,1.024,2.5,2.303,1.852,4.983
			c-0.146-0.014-0.295-0.027-0.441-0.041C739.253,287.368,739.45,285.516,737.13,284.726z"/>
		<path fill="#BEBEBF" d="M729.579,229.124c0.221,0.753,0.723,1.448,0.478,2.418c-0.902-0.522-1.126-1.459-1.364-2.256
			c-0.176-0.59,0.305-0.295,0.549-0.112l0.153-0.136L729.579,229.124z"/>
		<path fill="#403A30" d="M693.6,196.204c-0.166,0.129-0.332,0.254-0.499,0.383c-0.773-0.516-2.123,0.282-2.51-1.123
			C691.619,195.607,692.657,195.713,693.6,196.204z"/>
		<path fill="#FEE488" d="M648.768,269.143c0.529,0.01,1.062,0.02,1.591,0.031c0.655,0.699,1.601,0.678,2.419,0.929
			c1.248,0.38,1.815,1.167,1.635,2.418c-0.414,2.887-0.519,5.817-1.275,8.653c-0.468,1.747-1.598,3.131-2.476,4.644
			c-0.492,0.848-1.547,1.014-2.5,1.146c-3.667,0.539-7.323,1.16-11.027,1.404c-0.831-0.176-1.669-0.109-2.507-0.098
			c-2.473,0.502-4.979,0.38-7.479,0.407c-0.817,0.01-1.299-0.271-1.333-1.136c0.281-1.9,0.326-3.802,0.064-5.705
			c-0.448-3.409-2.059-6.004-5.2-7.52c-0.994-0.706-0.845-1.323,0.197-1.757c2.988-1.252,5.885-2.754,9.084-3.45
			c0.851-0.814,2.117-0.587,3.032-1.238c2.439-0.214,4.759-1.048,7.171-1.404c0.573-0.22,1.177-0.38,1.75-0.098
			C644.141,267.454,646.587,267.966,648.768,269.143z"/>
		<path fill="#2C2924" d="M650.237,197.063c-1.479,0.607-2.958,1.214-4.559,1.872c1.526,1.9,3.229,3.562,3.982,5.895
			c-1.231-1.635-2.496-3.233-3.853-4.749c-0.461-0.516-0.78-0.943-1.665-0.56c-4.817,2.086-9.314,4.681-13.524,7.978
			c1.462,1.292,3.124,2.239,3.752,4.165c-1.119-1.007-2.252-2.001-3.355-3.029c-0.665-0.621-1.174-0.57-1.889,0.027
			c-3.518,2.934-6.692,6.197-9.647,9.701c-0.756,0.899-0.614,1.279,0.366,1.757c1.326,0.651,2.592,1.438,3.799,2.34
			c-1.574-0.22-2.836-1.174-4.152-1.937c-0.909-0.526-1.391-0.441-1.974,0.427c-1.859,2.771-3.785,5.498-5.685,8.243
			c-0.109,0.119-0.217,0.115-0.329,0.007c0.492-1.805,1.805-3.124,2.72-4.678c0.533-0.906,1.33-1.679,1.35-2.832
			c0.434-0.312,0.668-0.78,1.007-1.269c-0.404-0.075-0.651,0.417-1.004,0.193c0.017-1.32,0.577-2.178,1.648-1.906
			c1.109,0.282,1.459-0.292,1.957-0.906c2.11-2.598,4.41-5.01,6.869-7.269c0.505-0.465,0.987-0.923,1.269-1.574
			c0.397-0.919,0.963-1.645,2.079-1.689c0.743-0.027,1.204-0.59,1.74-0.99c3.005-2.229,6.173-4.189,9.508-5.872
			c0.834-0.421,1.794-0.668,2.239-1.649c0.078-0.17,0.302-0.407,0.434-0.393c2.503,0.275,4.528-1.503,6.933-1.628
			c0.139,0.078,0.187,0.153,0.136,0.224C650.335,197.029,650.287,197.063,650.237,197.063z"/>
		<path fill="#261013" d="M634.752,288.118c0.78-0.037,1.56-0.078,2.337-0.115c0.332-0.193,0.55,0.017,0.77,0.22
			c1.007,0.946,2.168,0.41,3.277,0.349c2.235-0.122,4.291-1.214,6.54-1.262c0.203,0.064,0.37,0.183,0.495,0.356
			c-2.87,1.774-6.058,2.195-9.314,2.032c-1.574-0.081-2.266,0.499-2.785,1.92c-2.296,6.306-4.009,12.74-4.613,19.45
			c-0.061,0.672-0.017,1.398-0.753,1.784c0.455-7.632,2.283-14.945,5.037-22.045c0.271-0.695,0.546-1.387,0.855-2.167
			c-0.678-0.085-1.265-0.159-1.852-0.234c-0.139-0.064-0.187-0.126-0.139-0.19C634.657,288.148,634.704,288.118,634.752,288.118z"/>
		<path fill="#35332E" d="M608.237,229.975c-2.887,1.604-3.979,4.477-2.819,7.408c1.296,3.273,4.209,3.908,8.039,1.428
			c-0.634,1.055-0.431,1.727,0.081,2.408c1.591,2.12,3.127,4.284,4.684,6.428c-0.153,0.21-0.332,0.234-0.536,0.071
			c-1.811-1.94-3.287-4.135-4.766-6.326c-0.39-0.58-0.631-0.95-1.56-0.645c-2.999,0.987-5.76-0.533-6.706-3.48
			c-1.075-3.341,0.421-6.652,3.534-7.819C608.386,229.609,608.399,229.785,608.237,229.975z"/>
		<path fill="#3C392C" d="M629.966,269.106c-3.012,1.255-6.011,2.537-9.04,3.748c-1.201,0.482-0.587,0.787,0.017,1.167
			c-0.088,0.329-0.295,0.536-0.621,0.631c-2.788-0.224-4.942-1.696-6.893-3.572c0.071-0.37,0.248-0.556,0.641-0.387
			c3.277,2.954,6.496,2.045,9.976,0.204C625.821,269.954,627.72,268.753,629.966,269.106z"/>
		<path fill="#36322B" d="M605.37,279.963c0.682-1.326,1.099-1.587,3.826-2.371c-1.075-0.974-3.243-0.885-2.927-3.107
			c0.577-0.109,0.811,0.4,1.18,0.661c0.936,0.834,2.157,1.024,3.26,1.482c0.96,0.4,2.079,0.756,0.682,2.025
			c-0.397,0.36-0.203,1.041-0.451,1.526c-0.139,0.268-0.349,0.461-0.628,0.573c-1.221,0.085-0.471-2.12-2.008-1.733
			c-1.004,0.254-1.676,1.133-2.69,1.326C605.401,280.309,605.319,280.181,605.37,279.963z"/>
		<path fill="#23201C" d="M613.881,296.734c-0.943-0.404-1.75-0.468-2.88-0.156c-3.456,0.953-5.41-0.997-4.83-4.773
			c-0.112-0.651,0.302-0.648,0.743-0.604c0.661,0.539,0.261,1.252,0.295,1.893c0.061,1.211,0.648,2.049,1.764,2.456
			c1.313,0.478,2.252-0.176,2.222-1.594c-0.02-0.967-0.037-1.889,0.658-2.659c0.197-0.078,0.387-0.058,0.573,0.044
			c0.587,1.689,0.404,3.697,2.028,4.956C614.424,296.652,614.325,296.924,613.881,296.734z"/>
		<path fill="#1F1D1A" d="M634.752,288.118c-0.003,0.095-0.003,0.19,0,0.288c-1.927,0.801-3.962,0.424-5.95,0.529
			c-1.601,0.085-3.097,0.136-4.545,1.13c-1.058,0.726-2.497,0.889-3.762,1.303c-0.461,0.136-0.522-0.136-0.502-0.495
			c0.166-0.309,0.404-0.587,0.736-0.655c2.486-0.516,4.444-1.665,5.2-4.304c0.702,0.332,0.451,0.875,0.302,1.394
			c-0.214,1.116,0.438,1.184,1.279,1.14C629.922,288.315,632.337,288.223,634.752,288.118z"/>
		<path fill="#4A4338" d="M607.219,291.418c-0.414-0.047-0.814-0.051-1.052,0.387c-1.255-0.387-2.554-0.706-3.121-2.123
			c0.088-0.332,0.261-0.546,0.644-0.471c0.509,0.197,0.865,0.644,1.36,0.865c1.594,0.712,2.798,0.031,3.032-1.727
			c0.088-0.672-0.054-1.384,0.176-2.022c0.305-0.841,0.665-1.788,1.815-0.811c0.064,0.21,0.085,0.424,0.064,0.641
			c-0.21,1.001,0.034,2.059-0.278,3.022C609.458,290.435,609.139,291.927,607.219,291.418z"/>
		<path fill="#353124" d="M648.768,269.143c-1.869-0.332-3.65-0.98-5.329-1.835c-1.079-0.55-2.134-0.756-3.297-0.6
			c-0.438,0.197-0.539-0.017-0.495-0.41c0.098-0.244,1.313,0.132,0.397-0.638c-0.583-0.492-1.336-0.78-2.011-1.157
			c-0.041-0.319-0.027-0.57,0.393-0.322c3.056,1.526,6.092,3.107,9.389,4.057C648.34,268.387,648.605,268.675,648.768,269.143z"/>
		<path fill="#3D3A35" d="M603.403,289.18c-0.119,0.166-0.234,0.336-0.353,0.502c-0.943-3.195-0.024-6.143,1.214-9.036
			c0.187-0.438,0.522-0.811,1.106-0.678l0.007,0.047c0.139,0.146,0.312,0.312,0.21,0.522c-1.197,2.51-1.543,5.21-1.805,7.937
			C603.752,288.745,603.593,288.979,603.403,289.18z"/>
		<path fill="#38342D" d="M617.687,247.719c0.18-0.024,0.356-0.047,0.536-0.071c2.619,2.849,5.336,5.597,8.188,8.209
			c-0.173,0.244-0.373,0.271-0.604,0.085C622.778,253.523,620.085,250.768,617.687,247.719z"/>
		<path fill="#2F2C27" d="M660.908,196.669c-0.736-1.462-1.859-1.581-3.338-1.238c-0.78,0.18-1.72,1.055-2.551,0
			c1.995-0.549,3.843-2.34,6.095-0.739c-1.092,0.631,0.051,1.062,0.139,1.587C661.461,196.696,661.244,196.737,660.908,196.669z"/>
		<path fill="#383530" d="M606.927,275.299c-0.22-0.271-0.441-0.543-0.658-0.811c0.444-2.683,2.354-3.514,4.701-3.789
			c0.424-0.136,0.841-0.244,1.028,0.346c-0.129,0.339-0.4,0.587-0.723,0.638C609.105,272.013,607.772,273.352,606.927,275.299z"/>
		<path fill="#423F2E" d="M639.65,266.297c0.166,0.136,0.329,0.271,0.495,0.41c-2.381,0.383-4.63,1.601-7.144,1.16
			C635.139,267.013,637.391,266.643,639.65,266.297z"/>
		<path fill="#3F3C37" d="M625.807,255.941c0.2-0.027,0.404-0.058,0.604-0.085c1.757,1.547,3.962,2.551,5.363,4.525
			C629.46,259.347,627.666,257.597,625.807,255.941z"/>
		<path fill="#3B352A" d="M608.237,229.975c-0.017-0.176-0.034-0.349-0.051-0.526c1.102-0.085,2.205-0.17,3.311-0.251
			c0.109-0.014,0.217-0.017,0.329-0.007c0.119,0.94,1.496,0.885,1.52,2.198C611.761,230.104,610.109,229.548,608.237,229.975z"/>
		<path fill="#35322D" d="M613.881,296.734c0.156-0.129,0.312-0.258,0.468-0.387c1.414-0.706,3.083-0.923,4.189-2.225
			c0.373,0.081,0.546,0.282,0.4,0.675C617.863,297.015,616.537,297.524,613.881,296.734z"/>
		<path fill="#1E1D19" d="M650.237,197.063c0.014-0.109,0.02-0.217,0.014-0.329c1.414-0.75,2.975-0.98,4.518-1.282
			C653.568,196.876,651.78,196.615,650.237,197.063z"/>
		<path fill="#423F3A" d="M638.426,264.18c-0.132,0.109-0.261,0.217-0.393,0.322c-1.54-0.777-3.039-1.621-4.403-2.69
			C635.631,261.775,636.821,263.404,638.426,264.18z"/>
		<path fill="#EBEBEB" d="M615.573,220.61c0.648-0.407,0.767-1.703,2.117-1.13c-0.634,0.855-0.716,2.117-2.123,2.205
			C615.57,221.329,615.57,220.97,615.573,220.61z"/>
		<path fill="#565046" d="M618.938,294.797c-0.143-0.183-0.285-0.37-0.424-0.553c-0.777-1.896-0.315-2.836,1.581-3.212
			c0.132,0.109,0.268,0.22,0.4,0.329C619.067,292.09,619.508,293.677,618.938,294.797z"/>
		<path fill="#57544D" d="M611.893,271.083c-0.309-0.129-0.614-0.254-0.923-0.383c1.035-0.543,2.069-0.58,3.104-0.007
			c-0.173,0.142-0.346,0.285-0.522,0.431C612.985,271.656,612.432,271.677,611.893,271.083z"/>
		<path fill="#26170F" d="M648.222,286.459c3.127-0.366,3.473-3.236,4.294-5.342c1.031-2.642,0.997-5.607,1.326-8.45
			c0.176-1.513-0.268-2.232-1.805-2.476c-0.553-0.088-1.642,0.17-1.676-1.014c3.358,0.811,6.72,1.625,10.078,2.435
			c0.139,0.173,0.21,0.373,0.214,0.597c-0.438,3.531-0.794,7.069-1.859,10.495c-0.638,2.052-0.17,2.649,1.967,3.073
			c0.929,0.183,2.12-0.265,2.687,0.97c-0.77,0.044-1.54,0.085-2.313,0.129c-0.607-0.041-1.238,0.007-1.815-0.146
			c-0.753-0.2-1.065-0.044-1.289,0.753c-0.499,1.777-1.591,2.985-3.548,3.11c-2.025,0.132-3.243-1.102-3.775-2.795
			c-0.451-1.431-1.072-0.441-1.645-0.421C648.659,287.185,648.096,287.144,648.222,286.459z"/>
		<path fill="#342F19" d="M648.222,286.459c0.281,0.305,0.563,0.611,0.845,0.916c-0.295,0.095-0.594,0.193-0.889,0.288
			c-0.156-0.02-0.312-0.041-0.468-0.061c-2.279-0.088-4.413,0.862-6.659,0.953c-1.146,0.047-2.341,0.78-3.456-0.132
			c-0.166-0.139-0.336-0.278-0.502-0.417C640.8,287.487,644.511,286.971,648.222,286.459z"/>
		<path fill="#EDEDED" d="M675.945,193.704c1.096-1.672,1.859-1.214,2.788,0C677.807,193.704,677.067,193.704,675.945,193.704z"/>
		<path fill="#FEFEFE" d="M632.659,233.818c0.01-0.173,0.024-0.346,0.034-0.516c0.75-4.837,3.897-7.71,7.971-9.755
			c1.136-0.57,2.408-0.875,3.67-1.123c4.756-0.702,9.016,0.499,12.635,3.65c2.466,2.147,3.958,4.956,4.474,8.243
			c0.02,1.126,0.027,2.252-0.003,3.378c-0.383,1.55-0.6,3.161-1.615,4.484c-1.374,0.604-2.805,0.434-4.189,0.159
			c-1.15-0.227-2.286-0.173-3.433-0.21c-3.361-0.014-6.723,0.003-10.081-0.003c-0.882,0.044-1.791-0.17-2.639,0.265
			c-1.204,0.594-2.524,0.543-3.806,0.689c-1.174,0.092-1.869-0.502-2.256-1.574c-0.549-1.52-1.102-3.036-1.113-4.684
			C632.411,235.816,632.028,234.758,632.659,233.818z"/>
		<path fill="#FEFEFE" d="M695.476,244.371c-0.014-1.357-0.027-2.714-0.037-4.07c-0.458-2.748,1.218-4.64,2.724-6.509
			c2.005-2.493,4.779-3.755,7.856-4.376c1.421-0.01,2.843-0.007,4.26,0c6.36,1.045,10.139,4.817,11.529,11.116
			c0.017,1.082,0.017,2.161,0.003,3.243c-0.349,1.567-0.746,3.121-1.55,4.532c-0.665,1.757-1.825,2.174-3.531,1.438
			c-1.177-0.509-2.425-0.855-3.66-1.208c-1.336-0.285-2.622-0.76-3.952-1.085c-2.368-0.468-4.722-1.024-7.137-1.214
			c-0.587,0.024-1.17-0.02-1.75-0.119c-1.109-0.404-2.276-0.2-3.406-0.346C696.066,245.67,695.062,245.68,695.476,244.371z"/>
		<path fill="#FEE488" d="M663.452,286.744c-1.323-0.231-2.639-0.553-3.972-0.668c-1.52-0.129-1.862-1.194-1.537-2.246
			c1.163-3.785,1.696-7.673,2.191-11.577c0.01-0.088,0.2-0.153,0.305-0.227c2.493,0.22,4.983,0.461,7.391,1.208
			c0.461-0.36,0.98-0.495,1.557-0.404c0.94,1.462,2.442,0.76,3.646,0.801c1.57,0.051,1.988,0.607,1.842,2.083
			c-0.231,2.378-0.176,4.776-0.509,7.157c-0.448,3.192-1.174,3.918-4.42,3.908C667.783,286.771,665.619,286.758,663.452,286.744z"/>
		<path fill="#FDE2B5" d="M700.381,245.691c0.543-0.007,1.086-0.014,1.628-0.02c2.188,0.865,4.549,0.909,6.804,1.452
			c1.326,0.298,2.591,0.828,3.931,1.079c1.608,0.499,3.216,0.977,4.796,1.567c1.116,0.417,1.011,0.899,0.281,1.55
			c-1.886,1.679-3.88,3.155-6.503,3.399c-0.119,0.163-0.237,0.329-0.36,0.492c-1.286-0.014-2.571-0.136-3.86-0.088
			c-5.688-0.79-9.715-3.718-11.699-9.27C697.033,244.829,698.729,246.016,700.381,245.691z"/>
		<path fill="#050403" d="M684.479,253.438c-0.543,0.675-1.526,1.214-0.332,2.286c0.149,0.132-1.065,1.581-2.222,2.011
			c-0.231-0.628,0.699-0.672,0.451-1.204c-1.113-0.278-2.636,0.105-3.168-1.452c-0.278-0.814-0.193-1.635,0.79-2.022
			C681.511,252.973,683.068,252.329,684.479,253.438z"/>
		<path fill="#2F2C29" d="M661.21,234.151c-1.767-7.754-8.294-12.405-16.933-11.479c-0.41,0.18-0.57,0.014-0.546-0.404
			c8.796-1.316,16,3.148,17.845,11.065c0.061,0.261,0.027,0.543,0.041,0.814C661.481,234.334,661.345,234.344,661.21,234.151z"/>
		<path fill="#373228" d="M659.599,243.187c-3.443,5.624-10.488,8.246-16.865,6.275c0.095-0.339,0.322-0.553,0.638-0.678
			c1.55-0.051,3.1,0.126,4.65,0.044c3.775-0.193,6.838-1.91,9.471-4.539c0.471-0.471,0.804-1.113,1.523-1.296
			C659.239,242.967,659.432,243.035,659.599,243.187z"/>
		<path fill="#353027" d="M643.31,249.076c-0.193,0.129-0.387,0.258-0.58,0.387c-5.319-1.201-9.738-5.885-10.492-11.116
			c-0.031-0.485-0.529-1.113,0.397-1.299c0.21,1.052,0.346,2.123,0.648,3.148c0.363,1.228,0.848,2.435,2.405,2.568
			c0.2,0.353-0.458,0.563,0.088,1.177C637.879,246.318,640.749,247.444,643.31,249.076z"/>
		<path fill="#2B2822" d="M711.323,254.717c2.527-0.97,5.034-1.967,6.974-4.396c-1.971-0.634-3.802-1.225-5.634-1.815
			c-0.051-0.407,0.064-0.624,0.512-0.458c1.269,0.383,2.619,0.6,3.785,1.187c1.533,0.773,2.452,0.4,3.107-1.079
			c0.329-0.051,0.57-0.02,0.343,0.407c-1.737,3.212-4.589,5.041-7.805,6.435C712.07,255.225,711.713,254.981,711.323,254.717z"/>
		<path fill="#33312D" d="M643.731,222.272c0.183,0.136,0.366,0.268,0.546,0.404c-5.872,1.313-9.793,4.79-11.587,10.627
			c-0.889-0.685-0.136-1.421,0.092-1.964C634.844,226.393,638.453,223.29,643.731,222.272z"/>
		<path fill="#2F2C27" d="M705.73,229.67c-2.768,0.885-5.397,2.008-7.361,4.304c-1.567,1.835-2.764,3.833-2.931,6.326
			c-1.028,0.855-0.76-0.115-0.675-0.536c0.6-2.958,2.093-5.41,4.332-7.381c1.903-1.676,4.064-2.856,6.628-3.134
			c0.136,0.092,0.183,0.183,0.139,0.278C705.818,229.623,705.774,229.67,705.73,229.67z"/>
		<path fill="#34312B" d="M721.54,240.335c-1.442-5.892-5.207-9.345-10.997-10.681c0.047-0.248,0.288-0.268,0.448-0.377
			c5.804,0.98,10.193,5.4,10.973,11.048C721.828,240.508,721.686,240.511,721.54,240.335z"/>
		<path fill="#322D24" d="M695.679,246.023c2.089,5.074,5.821,8.009,11.224,8.762c0,0.807-0.549,0.451-0.933,0.448
			c-5.339-0.967-8.975-3.982-10.807-9.158C695.316,245.823,695.486,245.806,695.679,246.023z"/>
		<path fill="#413A2E" d="M652.312,221.695c-4.389-1.323-8.507-3.25-12.378-5.746c4.203,2.005,8.517,3.728,12.863,5.359
			C652.743,221.577,652.499,221.597,652.312,221.695z"/>
		<path fill="#332E24" d="M681.854,237.268c1.292,1.55,2.592,3.094,3.877,4.647c0.258,0.312,0.539,0.638,0.153,1.065
			c-1.068,1.18-1.899,2.585-3.514,3.29c0.787-0.957,1.533-1.947,2.374-2.856c0.577-0.624,0.594-1.068,0.017-1.716
			c-1.16-1.306-2.235-2.69-3.348-4.04C681.558,237.529,681.704,237.4,681.854,237.268z"/>
		<path fill="#463E31" d="M684.479,253.438c-1.435-0.817-2.995-0.126-4.477-0.377c1.618-0.875,3.412-0.081,5.193-0.533
			c-0.465-1.072-1.645-1.581-2.093-3.083c1.611,1.092,2.459,2.34,3.463,3.47C685.958,253.726,685.14,253.248,684.479,253.438z"/>
		<path fill="#1B1916" d="M659.599,243.187c-0.143-0.003-0.288-0.003-0.431-0.007c-2.235-0.427-4.62,0.2-6.75-0.977
			c-0.193-0.163-0.237-0.36-0.132-0.59c2.049,0.126,4.098,0.244,6.143,0.387c0.539,0.037,1.065,0.088,1.543-0.227
			c0.234,0.187,0.265,0.404,0.092,0.651C659.907,242.678,659.751,242.933,659.599,243.187z"/>
		<path fill="#201D13" d="M667.831,273.234c-2.486-0.265-4.976-0.495-7.391-1.208c0-0.139,0-0.278-0.003-0.417
			c2.062,0.285,4.128,0.56,6.187,0.865C667.112,272.549,667.79,272.403,667.831,273.234z"/>
		<path fill="#423B2F" d="M715.896,225.844c-1.991,0.55-3.975,1.16-6.045,1.265c-0.041-0.166-0.078-0.332-0.119-0.502
			c1.852-0.4,3.704-0.801,5.553-1.201C715.672,225.291,715.923,225.372,715.896,225.844z"/>
		<path fill="#2B2722" d="M695.679,246.023c-0.173,0.017-0.343,0.031-0.516,0.047c-0.143-0.512-0.397-1.021-0.407-1.537
			c-0.014-0.858,0.424-0.319,0.716-0.159c0.031,1.096,0.885,0.709,1.452,0.801c1.15,0.183,2.371-0.139,3.453,0.519
			c-0.824,0.838-1.733,0.044-2.598,0.136C697.08,245.901,696.327,245.392,695.679,246.023z"/>
		<path fill="#28231C" d="M610.76,232.848c0.79,0.193,1.469,0.526,1.852,1.472c-2.205-1.001-2.205-1.001-2.88,2.181
			c-0.36-1.238-0.36-1.238,0.112-3.151C609.8,232.533,610.289,232.702,610.76,232.848z"/>
		<path fill="#443C30" d="M660.908,196.669c0.115-0.132,0.231-0.261,0.346-0.393c1.119,1.37,2.259,2.731,3.117,4.288
			c-0.139,0.112-0.281,0.224-0.421,0.336C662.94,199.491,661.925,198.08,660.908,196.669z"/>
		<path fill="#373128" d="M696.833,201.204c0.109-0.01,0.22-0.01,0.329,0.007c0.896,1.665,0.265,3.453,0.756,5.152
			c-0.224,0.024-0.448,0.051-0.668,0.075C697.107,204.691,696.972,202.948,696.833,201.204z"/>
		<path fill="#1A1813" d="M706.14,227.611c-1.774,0.539-3.585,0.41-5.38,0.59c-0.017-0.176-0.031-0.349-0.048-0.526
			c1.801-0.156,3.606-0.312,5.407-0.468c0.143,0.081,0.19,0.17,0.149,0.261C706.229,227.564,706.184,227.611,706.14,227.611z"/>
		<path fill="#5C5241" d="M705.971,255.232c0.312-0.149,0.621-0.298,0.933-0.448c1.384-0.139,2.761-0.22,4.06,0.424
			C709.302,255.728,707.64,255.721,705.971,255.232z"/>
		<path fill="#5A544B" d="M632.635,237.044c-0.41,0.346-0.265,0.868-0.397,1.299c-0.309-1.55-1.011-3.141,0.417-4.528
			C632.649,234.894,632.642,235.969,632.635,237.044z"/>
		<path fill="#232019" d="M652.312,221.695c0.163-0.129,0.326-0.258,0.485-0.387c1.676,0.455,3.351,0.912,5.027,1.367
			C655.844,222.991,654.093,222.262,652.312,221.695z"/>
		<path fill="#48453F" d="M720.407,248.564c-0.115-0.136-0.227-0.271-0.343-0.407c0.495-1.408,0.991-2.815,1.486-4.223
			c0.261,0.044,0.285,0.298,0.407,0.465C721.798,245.925,721.374,247.346,720.407,248.564z"/>
		<path fill="#373127" d="M732.578,248.984c0.767-1.611,2.089-2.51,3.806-2.917C735.115,247.037,733.846,248.011,732.578,248.984z"
			/>
		<path fill="#373228" d="M660.063,242.424c-0.031-0.217-0.061-0.434-0.092-0.651c0.417-1.326,0.834-2.656,1.255-3.982
			c0.18,0.098,0.298,0.244,0.36,0.438C661.41,239.751,661.037,241.2,660.063,242.424z"/>
		<path fill="#16140C" d="M694.295,272.365c-1.221,0.36-2.381,1.241-3.741,0.461c1.218-0.417,2.459-0.716,3.748-0.78
			c0.092,0.075,0.119,0.146,0.088,0.217C694.36,272.328,694.326,272.365,694.295,272.365z"/>
		<path fill="#4A4235" d="M715.896,225.844c-0.204-0.146-0.407-0.292-0.611-0.438c1.211-0.383,2.422-0.767,3.636-1.15
			C718.168,225.501,716.968,225.511,715.896,225.844z"/>
		<path fill="#5B5140" d="M610.76,232.848c-0.343,0.098-0.746,0.081-0.916,0.502c-0.78,0-1.564,0-2.344,0
			C608.498,232.207,609.614,232.37,610.76,232.848z"/>
		<path fill="#0F0E0D" d="M710.991,229.277c-0.149,0.126-0.299,0.251-0.448,0.377c-1.604,0.007-3.209,0.014-4.813,0.017
			c-0.003-0.142-0.003-0.282-0.007-0.424C707.48,229.005,709.237,229.032,710.991,229.277z"/>
		<path fill="#0F0F0A" d="M694.295,272.365c0.007-0.105,0.01-0.214,0.01-0.319c0.957-0.288,1.91-0.577,2.866-0.865
			C696.612,272.565,695.34,272.182,694.295,272.365z"/>
		<path fill="#5F5443" d="M729.718,233.659c0.176,0.387,0.448,0.566,0.875,0.4c-0.027,0.204-0.054,0.41-0.081,0.617
			c-0.872-0.064-0.553,1.269-1.509,1.211C728.948,235.05,729.359,234.361,729.718,233.659z"/>
		<path fill="#655B3A" d="M688.132,273.586c-0.424-0.142-0.845-0.288-1.269-0.431c1.123-0.604,2.239-0.207,3.358,0.014
			C689.652,273.932,688.865,273.62,688.132,273.586z"/>
		<path fill="#12100C" d="M721.957,244.398c-0.136-0.156-0.271-0.312-0.407-0.465c-0.003-1.201-0.007-2.402-0.014-3.599
			c0.143-0.003,0.285-0.007,0.427-0.01C722.171,241.681,722.141,243.041,721.957,244.398z"/>
		<path fill="#171511" d="M706.14,227.611c-0.007-0.132-0.014-0.268-0.02-0.4c0.926-0.024,1.822-0.624,3.127-0.159
			C708.064,227.655,707.094,227.598,706.14,227.611z"/>
		<path fill="#11100D" d="M661.583,238.228c-0.119-0.146-0.241-0.292-0.36-0.438c-0.003-1.214-0.01-2.425-0.014-3.64
			c0.136,0.007,0.271,0.003,0.407-0.003C661.797,235.508,661.803,236.871,661.583,238.228z"/>
		<path fill="#121009" d="M682.4,285.998h-0.187l-0.187,0.01c0-1.679,0-3.358,0-5.037C682.549,282.626,682.59,284.305,682.4,285.998
			z"/>
		<path fill="#413A2E" d="M725.594,284.512c-0.502-1.231-1.289-2.056-2.958-1.815c1.625-1.082,2.324-0.763,3.348,1.275
			C725.906,284.19,725.885,284.451,725.594,284.512z"/>
		<path fill="#2C2820" d="M725.594,284.512c0.129-0.18,0.261-0.36,0.39-0.539c0.346,1.336,0.628,2.67-0.234,3.992
			C725.699,286.812,725.648,285.662,725.594,284.512z"/>
		<path fill="#C92040" d="M674.74,285.129c0.417-3.521,0.845-6.635,0.773-9.776c-0.037-1.723,1.065-1.479,2.025-1.353
			c1.004,0.132,2.578-0.729,2.544,1.503c-0.051,3.287-0.434,6.516-1.055,9.833C677.678,284.75,676.335,284.424,674.74,285.129z"/>
		<path fill="#F0FC65" d="M679.557,288.505c-0.007,1.788-1.404,3.324-2.968,3.263c-1.53-0.058-2.71-1.475-2.714-3.253
			c-0.003-1.893,1.248-3.283,2.91-3.236C678.275,285.316,679.567,286.822,679.557,288.505z"/>
		<path fill="#FCE2B6" d="M726.055,291.598c1.815-0.234,3.246-0.753,4.461-1.842c0.492-0.441,5.553-0.309,6.109,0.061
			c0.577,0.38,0.533,0.926,0.346,1.455c-0.658,1.876-1.822,3.155-3.918,3.348C731.326,294.776,727.547,293.236,726.055,291.598z"/>
		<path fill="#2A2619" d="M620.482,274.414c0.153-0.132,0.309-0.261,0.461-0.393c3.358,1.286,4.908,3.894,5.295,7.357
			c0.136,0.512,0.37,1.041-0.258,1.411c-0.58-0.153-0.628-0.672-0.719-1.123c-0.539-2.734-1.727-5.017-4.233-6.428
			C620.726,275.065,620.533,274.777,620.482,274.414z"/>
		<path fill="#4E462D" d="M625.848,282.694c0.424-0.349,0.254-0.879,0.39-1.316c0.563,1.978,0.529,3.955-0.01,5.929
			c-0.125-0.431-0.251-0.862-0.376-1.292C624.935,284.909,624.939,283.8,625.848,282.694z"/>
		<path fill="#E3CF82" d="M637.591,288.42c2.69-0.336,5.38-0.689,8.076-0.994c0.675-0.075,1.425-0.607,2.039,0.173
			c-3.019,0.926-6.055,1.774-9.26,1.608C637.784,289.173,637.784,289.169,637.591,288.42z"/>
		<path fill="#FDE2B5" d="M625.848,282.694c0,1.106,0.003,2.215,0.003,3.321c0.231,2.578-1.262,3.657-3.487,4.176
			c-0.78,0.183-1.516,0.56-2.273,0.845c-1.34,0.665-1.672,1.832-1.581,3.212c-0.634,2.225-2.395,2.168-4.162,2.103
			c-2.636-0.858-1.947-3.083-2.018-4.996c0.02-1.191,0.614-1.998,1.526-2.558c-1.611-0.566-3.412-1.109-3.986-3.219
			c-0.702-0.329-1.15-0.146-1.231,0.668c-0.041,0.404-0.044,0.817-0.014,1.225c0.098,1.398,0.22,2.829-1.496,3.351
			c-1.659,0.502-2.876-0.187-3.731-1.635c-0.122-3.226,0.183-6.36,1.974-9.165c0.288-0.159,0.594-0.288,0.862-0.478
			c0.896-0.641,1.947-1.221,2.954-1.17c1.401,0.071,0.176,1.781,1.052,2.361c0.824,1.018,1.72,1.944,2.938,2.286
			c-1.055-0.645-2.642-0.906-2.568-2.764c0.047-1.035-0.729-2.541,1.927-2.279c-2.117-1.255-4.294-1.089-5.61-2.666
			c-0.19-2.127,0.967-3.195,2.853-3.68c0.702-0.18,1.408-0.36,2.11-0.536c0.553,0.014,1.106,0.027,1.662,0.041
			c2.317,1.085,4.301,2.876,6.93,3.29C624.162,275.924,625.495,278.983,625.848,282.694z"/>
		<path fill="#383228" d="M610.611,280.245c0.767,2.174,2.602,2.527,4.691,2.608c-1.835,1.17-3.897,0.237-5.061-2.127
			C610.363,280.564,610.489,280.404,610.611,280.245z"/>
		<path fill="#FAE0B5" d="M607.219,291.418c1.811-0.346,2.161-1.676,2.242-3.263c0.037-0.709-0.594-1.577,0.387-2.12
			c0.682,0.244,0.79,1.031,1.398,1.414c2.256,1.431,2.232,1.469,0.716,3.901c-0.102,0.739-0.363,1.499-0.271,2.212
			c0.146,1.119,0.522,2.259-1.038,2.561c-1.462,0.282-2.88,0.204-3.629-1.421C606.507,293.582,606.429,292.466,607.219,291.418z"/>
		<path fill="#2E2920" d="M611.964,291.35c0.936-1.665,1.231-3.107-1.082-3.908c-0.509-0.176-0.892-0.78-1.028-1.404
			c0.007-0.156,0.014-0.309,0.02-0.465c2.137,2.147,2.218,2.191,5.658,3.402c-2.218-0.573-2.3,1.391-3.202,2.378h-0.183
			L611.964,291.35z"/>
		<path fill="#C92040" d="M657.367,283.227c-1.113-0.801-2.117-1.503-3.423-1.36c-0.858,0.095-0.817-0.468-0.668-1.062
			c0.692-2.792,1.102-5.621,1.096-8.5c-0.003-1.048,0.465-1.316,1.387-1.113c0.79,0.176,1.584,0.339,2.378,0.499
			c0.879,0.176,1.184,0.675,1.143,1.598C659.137,276.643,658.411,279.865,657.367,283.227z"/>
		<path fill="#F1FD66" d="M657.604,286.167c0.034,2.123-1.503,3.914-3.338,3.884c-1.73-0.027-3.233-1.791-3.233-3.792
			c0-2.076,1.411-3.687,3.243-3.701C656.206,282.548,657.57,284.027,657.604,286.167z"/>
		<path fill="#FCE2B5" d="M652.285,241.973c1.652,0.176,3.307,0.309,4.952,0.55c0.661,0.098,1.503-0.187,1.927,0.661
			c-4.138,5.102-9.396,7.147-15.854,5.892c-3.06-0.814-5.634-2.405-7.741-4.803c-0.56-0.638-0.614-1.058,0.115-1.513
			c1.092-0.763,2.5-0.122,3.609-0.814c1.119,0,2.245,0.064,3.355-0.19C645.864,241.891,649.083,241.495,652.285,241.973z"/>
		<path fill="#100E0D" d="M652.285,241.973c-3.378,0.02-6.757,0.041-10.135,0.061c-0.424,0.142-0.533-0.051-0.451-0.438
			c3.528-0.187,7.055-0.265,10.58,0.017C652.279,241.732,652.279,241.851,652.285,241.973z"/>
		<path fill="#121111" d="M649.456,234.541c-0.109,0.685-0.471,1.197-1.177,1.14c-0.699-0.058-1.024-0.597-0.987-1.299
			c0.037-0.719,0.383-1.16,1.146-1.106C649.202,233.33,649.429,233.859,649.456,234.541z"/>
		<path fill="#57534C" d="M641.702,241.596c0.149,0.146,0.299,0.292,0.451,0.438c-0.963,0.393-1.923,0.624-2.856-0.085
			C640.03,241.362,640.875,241.522,641.702,241.596z"/>
		<path fill="#3D3B36" d="M708.79,247.407c-2.035-0.326-4.07-0.655-6.109-0.974c-0.441-0.068-0.77-0.217-0.672-0.76
			c2.48,0.275,4.939,0.672,7.361,1.289C709.404,247.414,709.186,247.529,708.79,247.407z"/>
		<path fill="#212121" d="M711.561,239.928c-0.085,0.672-0.404,1.208-1.113,1.16c-0.672-0.047-1.062-0.553-1.018-1.255
			c0.041-0.607,0.417-1.011,1.018-1.048C711.205,238.737,711.466,239.266,711.561,239.928z"/>
		<path fill="#504B42" d="M708.79,247.407c0.193-0.149,0.387-0.295,0.58-0.444c1.269,0.363,2.537,0.726,3.806,1.085
			c-0.17,0.153-0.343,0.305-0.512,0.458C711.371,248.14,710.082,247.773,708.79,247.407z"/>
	</g>
	<path fill="none" stroke="#13110C" stroke-width="6" d="M733.88,315.902c0-30.62-33.086-52.851-62.708-52.851
		c-29.619,0-62.671,22.618-62.671,52.851"/>
</g>
</svg>
