<?xml version="1.0" encoding="utf-8"?>
<!-- Generator: Adobe Illustrator 18.1.1, SVG Export Plug-In . SVG Version: 6.00 Build 0)  -->
<svg version="1.1" id="Capa_1" xmlns="http://www.w3.org/2000/svg" xmlns:xlink="http://www.w3.org/1999/xlink" x="0px" y="0px"
	 viewBox="0 0 1024 768" enable-background="new 0 0 1024 768" xml:space="preserve">
<g>
	<path fill="#C92040" d="M279,493c0.364-2.247-0.773-4.517,0.102-6.756c1.781-7.414,2.231-15.049,3.823-22.507
		c2.121-9.937,5.346-19.515,8.533-29.129c1.476-4.454,4.01-6.413,8.794-6.013c7.278,0.609,14.131-1.44,20.797-4.152
		c0.934-0.476,1.897-0.896,2.85-1.331c2.876-1.391,4.257-0.337,5.746,2.472c3.443,6.495,10.615,7.337,13.699,1.214
		c2.84-5.638,6.492-5.669,11.317-4.6c7.961,0.861,15.94,0.598,23.89,0.196c5.396-0.273,5.38-0.579,6.021,4.62
		c0.464,3.77,3.54,7.801,6.475,8.005c3.88,0.27,6.088-2.084,7.434-5.451c0.622-1.556,1.176-3.395,3.335-3.005
		c2.544,0.459,1.791,2.594,2.02,4.367c0.762,5.908,2.061,11.74,2.179,17.737c0.147,7.496-0.356,14.916-1.907,22.266
		c-0.257,1.219-0.963,2.564,0.031,3.822c2.273,3.822,4.821,7.509,5.495,12.073c0.315,2.132,0.859,4.243-0.632,6.172
		c-22.333,0-44.667,0-67,0c1.331-3.673,3.249-7.109,3.655-11.142c0.279-2.769,2.797-2.348,4.75-2.33
		c7.681,0.073,14.969-1.478,21.826-4.882c-6.681,3.261-13.766,5.016-21.228,4.771c-3.584-0.118-5.612,0.662-5.867,4.691
		c-0.214,3.371-1.906,6.321-4.136,8.892C320.333,493,299.667,493,279,493z"/>
	<path fill="#1F1E1B" d="M357.926,198.005c8.859-2.093,17.879-1.286,26.84-1.41c2.707-0.037,4.893-0.343,5.234-3.596c2,0,4,0,6,0
		c1.263,3.344,3.85,4.523,7.244,4.762c3.789,0.266,7.561,0.803,11.331,1.295c1.164,0.152,2.914-0.282,2.613,1.934
		c-3.38,2.036-6.774,0.207-10.131-0.07c-2.615-0.215-4.749-0.507-4.326,3.214c0.145,1.28,0.111,2.864-1.682,3.064
		c-1.451,0.162-1.965-1.165-2.26-2.242c-1.254-4.58-4.588-5.646-8.789-5.515c-9.099,0.284-18.221-0.579-27.309,0.647
		C360.879,200.333,358.594,200.779,357.926,198.005z"/>
	<path fill="#28040C" d="M341,493c1.563-3.95,3.82-7.672,3.951-12.093c0.055-1.861,1.401-2.029,2.793-1.991
		c9.283,0.251,18.07-1.729,26.419-5.767c0.359-0.174,0.903,0.036,2.319,0.132c-8.389,4.672-16.484,7.048-25.209,6.913
		c-3.285-0.051-5.277,0.398-5.405,4.39c-0.101,3.138-1.9,5.915-3.868,8.417C341.667,493,341.333,493,341,493z"/>
	<path fill="#381921" d="M409,493c0.901-6.591-1.843-12.124-5.083-17.513c-0.395-0.612-0.326-1.167,0.208-1.663
		c4.676,5.537,7.02,11.91,6.875,19.176C410.333,493,409.667,493,409,493z"/>
	<path fill="#FDE2B5" d="M357.926,198.005c1.053,1.8,2.719,0.848,4.021,0.7c9.938-1.129,19.899-0.429,29.847-0.623
		c5.356-0.105,7.961,1.993,8.349,7.202c0.044,0.593,0.079,1.379,1.347,1.581c0.751-2.626-0.972-4.847-1.276-7.695
		c5.789-0.311,11.349,1.15,16.974,1.822c2.921-1.545,5.82,0.848,8.737,0.047c2.039,1.643,4.784,1.228,6.989,2.397
		c0.809,0.169,1.597,0.403,2.407,0.558c5.549,1.064,6.12,1.771,6.164,7.525c0.008,0.988,0,1.976,0.005,2.957
		c0.641,3.03,1.152,6.082,1.019,9.206c0.139-3.027-0.302-5.994-0.912-8.949c-0.21-8.74-0.174-8.787,7.79-4.983
		c5.971,2.852,11.672,6.197,17.239,9.767c2.627,2.697,6.302,3.855,9.16,6.218c3.382,3.214,1.527,7.24,1.424,10.874
		c-0.067,2.35-0.835,4.816-1.871,7.065c-0.189,0.639,1.131,0.054,0.473,0.162c-0.116,0.019-0.172-0.139-0.069-0.438
		c1.516-4.39,1.402-9.071,2.425-13.55c3.969,1.151,6.615,4.134,9.119,7.07c4.791,5.618,9.77,11.076,14.404,16.827
		c1.744,2.505,2.714,5.185,1.718,8.289c-0.117,0.619,0.275,0.461,0.248,0.206c-0.255-2.365,0.437-3.294,2.551-1.345
		c3.976,6.571,7.597,13.34,11.306,20.061c2.168,4.033,5.211,7.699,5.296,12.607c-1.445,2.169-0.081,2.739,1.744,3.057
		c1.924,4.592,3.728,9.224,5.268,13.952c0.593,1.82,1.238,3.144,3.557,3.478c7.35,1.056,10.037,4.438,9.599,11.511
		c-0.432,6.989-4.461,11.129-11.086,11.4c-6.198-3.475-10.541-1.178-14.584,4.033c-2.709,3.492-6.059,6.568-9.516,9.428
		c-12.455,10.511-26.127,19.178-40.614,26.556c-7.562,3.851-15.589,6.575-23.777,8.797c-0.454,0.179-0.921,0.32-1.39,0.452
		c-2.306,0.755-4.74,0.948-7.064,1.628c-2.786,0.74-5.676,1.059-8.392,2.091c-0.681,0.353-1.386,0.631-2.145,0.767
		c-2.901-0.219-5.809-0.606-8.646,0.478c-13.578,0.159-27.162,0.904-40.696-0.758c-1.703,0.064-3.407,0.337-5.117,0.081
		c-5.859-2.037-12.118-1.859-18.1-3.229c-8.341-1.709-16.614-3.711-24.855-5.839c-1.309-0.047-2.585-0.263-3.796-0.781
		c-1.886-1.358-4.012-2.194-6.225-2.853c-6.816-2.029-12.96-5.447-18.934-9.208c-3.962-2.052-7.44-5.004-11.777-6.367
		c-1.05-1.77-2.979-2.389-4.55-3.476c-4.614-3.551-9.155-7.199-13.892-10.592c-6.827-6.736-13.781-13.344-20.258-20.427
		c-4.008-5.468-8.476-10.606-11.914-16.482c-0.896-1.531-1.73-1.767-3.576-1.185c-7.742,2.441-13.356-0.365-15.862-7.564
		c-2.648-7.61,0.602-15.162,7.744-18.001c3.634-0.322,7.395-1.572,9.747,0.773c-0.064-0.049-1.069-0.663-1.186-1.968
		c3.327-7.26,8.543-13.338,12.625-20.128c1.911-3.178,4.611-3.595,7.612-1.5c1.746,1.219,3.554,2.309,5.47,3.231
		c-0.872-0.667-1.977-0.928-2.865-1.547c-7.795-5.434-7.762-2.552-1.548-10.36c5.461-6.861,12.265-12.632,18.479-18.88
		c4.325-4.348,5.701-4.139,10.335,0.044c0.986,0.89,1.914,1.848,2.824,2.819c-1.192-1.311-2.414-2.601-3.764-3.743
		c-3.454-2.918-3.484-3.74,0.228-6.378c8.952-6.361,18.624-11.49,28.401-16.428c2.411-1.218,4.281-1.466,6.318,1.345
		c2.292,3.164,5.158,5.962,6.497,7.909c-1.19-1.586-3.253-4.498-5.825-7.038c-2.048-2.021-2.314-3.927,1.088-5.134
		c2.963-1.051,5.864-2.27,8.937-2.996c3.486-1.483,7.415-1.61,10.76-3.523c0.196-0.154,0.403-0.172,0.622-0.054
		c1.843,0.744,3.439-0.147,5.073-0.773c3.938-1.508,7.301-1.131,9.557,2.896c1.811,2.709,3.914,5.205,5.851,7.824
		c-1.805-2.466-3.723-4.848-5.448-7.371c-0.366-1.45-4.173-2.836-0.086-4.376C354.943,198.27,356.335,197.769,357.926,198.005z"/>
	<path fill="#FEE488" d="M442.05,385c0.18-0.056,0.362-0.065,0.546-0.029c6.909-0.454,12.96-3.71,19.303-5.984
		c2.423-0.869,4.696-1.632,7.066-0.046c3.758,0.719,7.516,1.438,11.274,2.157c7.11,3.538,14.937,5.361,21.92,9.239
		c2.613,1.451,5.187,2.964,7.779,4.448c2.849,1.631,2.853,3.486,0.172,5.245c-3.908,2.564-7.488,5.476-10.742,8.849
		c-4.613,4.781-7.181,10.336-6.861,17.021c0.189,3.95-1.338,4.884-4.77,3.173c-0.861,0.296-1.723,0.591-2.584,0.887
		c-5.943-2.332-12.316-1.719-18.46-2.697c-19.458-1.693-38.914-1.464-58.368-0.018c-2.497,0.513-4.36,0.392-3.44-3.05
		c0.291-1.088,0.533-2.22,0.618-3.361c0.021-3.727,0.007-7.456-0.143-11.18c-0.305-0.646-1.223,0.163-0.608-0.095
		c0.266-0.111,0.418-0.046,0.456,0.197c0.588,3.741,0.15,7.504,0.249,11.259c-0.999,1.783,0.575,5.201-3.077,5.252
		c-2.869,0.04-5.018-2.898-4.476-6.62c1.197-8.214,2.015-16.462,2.81-24.717c0.245-2.541,1.529-3.667,4.167-3.975
		c4.794-0.56,9.64-0.062,14.398-0.924c1.895-0.577,3.878,1.263,5.746-0.2c0.269-0.279,0.538-0.559,0.807-0.838
		c3.115,0.058,6.056-0.935,9.068-1.499C437.232,386.517,440.085,387.032,442.05,385z"/>
	<path fill="#FDE2B5" d="M529.693,414.823c0.447,0.403,0.893,0.805,1.34,1.208c2.884,1.873,6.199,0.429,9.228,1.201
		c5.826,1.84,5.285,6.632,5.204,11.205c-0.869,1.993-2.784,2.946-4.465,2.239c-3.861-1.622-7.841-1.153-11.782-1.527
		c-3.388-0.321-3.493-0.665-2.411-4.463c-2.32,6.217-7.679,8.489-13.506,9.864c0.5,2.679,2.347,3.255,3.992,3.927
		c1.841,0.751,4.071,1.075,4.175,3.625c0.113,2.741-1.364,4.698-3.595,6.164c-1.763,1.158-3.709,1.361-5.741,1.227
		c-3.304,0.959-5.696-0.921-7.842-2.851c-2.519-2.265-5.173-4.48-6.842-7.547c-10.251-15.092-5.146-26.271,7.671-36.228
		c3.57-2.773,7.19-5.883,11.948-6.747c5.511-1.081,11.045-2.336,15.792,2.155c2.037,1.069,3.757,2.611,5.618,3.931
		c3.685,2.613,3.695,3.81,0.779,8.029c-2.474,1.328-5.166,0.776-7.746,0.699C527.509,410.813,527.711,412.32,529.693,414.823z"/>
	<path fill="#261310" d="M405.835,420.997c1.667,1.609-3.07,5.546,2.134,5.869c0.24,0.222,0.323,0.446,0.248,0.673
		c-0.075,0.228-0.152,0.343-0.231,0.343c-4.599,0.306-3.488,3.415-2.928,6.126c2.758,13.349,2.552,26.618-0.934,39.816
		c-0.07,0.553-0.14,1.105-0.208,1.661c-2.594-3.222-0.028-6.425,0.352-9.485c1.342-10.813,1.357-21.504-0.864-32.181
		c-0.034-0.162-0.067-0.337-0.153-0.473c-1.186-1.884,1.506-5.522-1.7-5.919c-2.36-0.292-1.399,3.497-2.77,5.107
		c-2.407,2.826-5.053,5.054-8.973,3.683c-4.416-1.544-7.081-5.136-6.426-9.561c0.681-4.592-1.319-3.337-3.928-3.1
		c-8.583,0.781-17.192,1.381-25.744-0.425c1.324-1.665,3.256-1.373,5.032-1.573c6.286-0.268,12.59,0.351,18.881-0.489
		c4.388-0.585,6.75-2.458,7.111-7.258c0.373-4.961,0.885-9.898,0.801-14.882c-0.101-5.988-0.124-5.97-6.011-6.53
		c-2.329-0.222-5.278,0.29-5.586-3.387c14.261,1.487,28.556,1.15,42.851,0.786c1.139,0.043,2.749-1.309,3.107,1.049
		c-4.987,0.281-9.972,0.707-14.962,0.778c-2.342,0.034-3.124,0.621-3.164,3.085c-0.134,8.161-0.854,16.287-2.588,24.289
		c-0.763,3.523,0.572,5.776,4.02,6.958c1.655-1.305,0.508-3.556,1.723-4.943C405.222,420.568,405.524,420.563,405.835,420.997z"/>
	<path fill="#2F2B24" d="M512.004,449.166c2.38-0.072,4.547-0.691,6.403-2.285c3.442-2.956,3.016-5.348-1.202-7.006
		c-1.371-0.539-2.716-1.257-3.897-2.131c-1.181-0.874-2.665-1.988-2.448-3.54c0.306-2.196,2.42-1.089,3.701-1.318
		c6.888-1.232,10.908-5.747,13.533-12.661c1.502,3.471-1.372,4.93-1.265,7.523c5.005,0.719,10.464-0.82,15.197,2.222
		c0.452,0.291,1.721-0.69,2.611-1.08c0.4-0.384,0.761-0.35,1.084,0.101c-2.817,2.445-4.617,5.506-6.37,8.819
		c-2.953,5.579-9.46,7.038-16.635,4.515c-1.98,6.239-4.502,8.008-10.714,7.514C512.003,449.614,512.004,449.39,512.004,449.166z"/>
	<path fill="#302D21" d="M516.961,396.775c-7.146,2.934-13.296,7.338-18.399,13.078c-7.357,8.275-7.433,16.808-0.576,29.18
		c0.474,0.946-0.027,1.058-0.801,0.937c-0.326-0.363-0.737-0.68-0.965-1.097c-2.117-3.885-3.695-8.226-8.482-9.8
		c3.039,0.513,4.036-0.033,3.602-3.736c-0.846-7.219,2.709-13.089,7.657-18.116c3.81-3.871,8.249-6.95,13.31-9.927
		c-8.957-6.052-18.225-10.219-27.932-13.562c-1.446-0.498-3.993,0.125-4.135-2.633c10.817,2.564,20.695,7.313,30.171,12.985
		c1.68,1.006,3.185,2.412,5.388,1.823C516.799,395.375,517.015,395.894,516.961,396.775z"/>
	<path fill="#2C2922" d="M468.966,378.942c-7.559-0.471-13.658,4.25-20.644,5.746c-1.791,0.384-3.726,2.764-5.725,0.283
		c24.281-7.177,45.947-19.158,65.226-35.52c0.515,0.405,0.572,0.866,0.171,1.383c-11.236,10.099-23.779,18.255-37.257,25.014
		C469.439,376.5,467.337,376.637,468.966,378.942z"/>
	<path fill="#33312C" d="M530.969,336.219c4.178,0.516,7.778-0.713,9.524-4.621c1.993-4.463,2.674-9.233,0.012-13.816
		c-1.42-2.445-3.908-3.121-6.421-2.933c-2.925,0.219-4.086-1.183-4.919-3.664c-1.677-4.995-3.557-9.922-5.354-14.877
		c-0.291-0.38-0.438-0.809-0.444-1.287c0.096-0.469,0.329-0.857,0.697-1.163c1.423,3.342,2.831,6.69,4.272,10.024
		c1.973,4.565,2.297,9.812,9.7,10.356c5.415,0.398,7.307,8.613,4.818,16.125c-2.013,6.074-6.942,8.62-13.189,6.813
		C529.856,336.523,530.486,336.471,530.969,336.219z"/>
	<path fill="#393523" d="M407.987,427.881c-0.006-0.339-0.012-0.677-0.017-1.016c13.305-1.768,26.685-1.708,40.047-1.274
		c6.407,0.208,12.9-0.332,19.226,1.276c-0.485,0.913-1.576,0.417-2.222,0.957C446.008,426.562,426.997,426.887,407.987,427.881z"/>
	<path fill="#24221E" d="M466.824,220.576c-7.807-4.846-15.571-9.777-24.792-12.908c0,2.751,0,5.038,0,7.325
		c-0.274,0.297-0.543,0.293-0.807-0.012c0.813-6.888-2.691-10.257-9.147-11.218c-0.103-0.983,0.281-1.326,1.225-0.931
		c4.721-1.593,7.52,2.332,11.151,3.875c7.95,3.378,15.595,7.301,22.535,12.497C467.39,219.716,467.335,220.174,466.824,220.576z"/>
	<path fill="#363430" d="M500.568,254.124c-6.54-8.635-13.665-16.743-21.653-24.074c0.497-0.458,1.034-0.511,1.611-0.158
		c5.601,4.229,9.978,9.66,14.606,14.847c1.69,1.894,2.906,3.931,6.044,4.531c2.88,0.551,2.986,3.941,2.641,6.706
		C502.153,256.378,501.91,254.287,500.568,254.124z"/>
	<path fill="#312D27" d="M530.969,336.219c-0.434,0.319-0.869,0.637-1.303,0.956c-4.419-2.662-7.161-0.341-10.057,2.917
		c-3.498,3.936-7.319,7.621-11.616,10.742c-0.057-0.461-0.114-0.922-0.171-1.383c4.997-5.691,12.157-9.508,15.511-17.187
		C525.4,333.717,527.905,335.555,530.969,336.219z"/>
	<path fill="#262523" d="M524.065,293.857c-0.067,0.314-0.086,0.631-0.056,0.951c-1.303,0.975-2.074,0.776-2.145-0.971
		c-0.375-4.75-3.85-8.322-4.871-12.827c-0.553-0.959,0.007-1.023,0.754-0.938c0.31,1.645,4.27-0.458,2.945,2.867
		c-0.342,1.039,0.273,1.757,0.905,2.643c-0.413-1.02-0.421-1.892-0.08-2.765c2.784,0.269,2.385,2.506,2.502,4.268
		C524.169,289.333,524.061,291.599,524.065,293.857z"/>
	<path fill="#24221D" d="M480.526,229.892c-0.537,0.053-1.074,0.105-1.611,0.158c-0.66,3.999-1.187,8.026-2.052,11.98
		c-0.302,1.379-0.126,3.299-2.562,4.329c0.924-5.199,2.656-9.778,2.603-14.667c-0.023-2.138-0.412-3.884-2.076-5.255
		c-0.754-1.925-0.426-3.235,1.928-3.394C478.367,225.13,478.07,228.268,480.526,229.892z"/>
	<path fill="#45423B" d="M517.746,280.072c-0.251,0.313-0.502,0.626-0.754,0.938c-3.691-6.46-7.382-12.92-11.073-19.38
		c-0.294-0.562-0.265-1.108,0.085-1.636C510.775,266.186,514.316,273.097,517.746,280.072z"/>
	<path fill="#332F29" d="M529.693,414.823c-2.555-0.861-3.225-2.952-3.789-5.622c4.567,0.966,8.841,1.274,13.141,1.236
		c0.328,0.148,0.44,0.303,0.34,0.468c-0.102,0.168-0.206,0.253-0.312,0.253c-2.364,1.468-5.055,0.776-7.429,0.554
		C528.042,411.376,529.644,413.382,529.693,414.823z"/>
	<path fill="#36332D" d="M516.961,396.775c-0.388-0.289-0.775-0.579-1.163-0.868c6.395-1.997,12.649-2.848,18.174,2.235
		c0.141,0.833,0.039,1.387-0.998,0.872C528.095,394.988,522.531,395.86,516.961,396.775z"/>
	<path fill="#27251E" d="M465.021,427.824c0.741-0.319,1.481-0.638,2.222-0.957c5.177,0.423,10.355,0.84,15.531,1.272
		c1.167,0.097,2.323,0.252,2.378,1.822C478.443,429.249,471.732,428.537,465.021,427.824z"/>
	<path fill="#302E29" d="M497.185,439.97c0.267-0.312,0.534-0.625,0.801-0.937c4.034,4.262,7.269,9.628,14.019,10.133
		c-0.002,0.224-0.003,0.448-0.003,0.671c-1.37,1.332-2.644,1.101-4.26,0.181C503.367,447.527,499.897,444.167,497.185,439.97z"/>
	<path fill="#423E37" d="M532.974,399.013c0.333-0.291,0.665-0.581,0.998-0.872c1.766,1.194,3.58,2.323,5.288,3.594
		c4.029,2.999,3.949,5.924-0.187,9.423c-0.102-0.237-0.112-0.477-0.028-0.721c2.28-3.593,1.812-6.402-2.174-8.466
		C535.444,401.233,534.266,400.013,532.974,399.013z"/>
	<path fill="#2A2824" d="M476.755,223.042c-1.358,0.725-1.822,1.958-1.928,3.394c-2.668-1.953-5.335-3.906-8.003-5.859
		c0.055-0.457,0.11-0.915,0.165-1.372C469.475,222.441,474.047,220.371,476.755,223.042z"/>
	<path fill="#2D2C2B" d="M506.004,259.994c-0.028,0.545-0.056,1.089-0.084,1.635c-3.172-1.285-1.21,1.512-1.721,2.293
		c-0.457,0.698,0.038,2.244-1.469,1.91c-0.988-0.219-0.681-1.157-0.382-1.993c1.271-3.558,0.281-6.744-1.78-9.715
		c1.656-0.388,2.335,0.938,3.249,1.852C504.546,257.315,505.275,258.654,506.004,259.994z"/>
	<path fill="#4B4841" d="M540.03,417.914c-3.019-0.533-6.581,1.533-8.997-1.882c3.333,0.857,6.91-1.202,10.143,0.849
		C541.037,417.495,540.414,417.571,540.03,417.914z"/>
	<path fill="#24221D" d="M540.03,417.914c0.382-0.344,0.764-0.689,1.146-1.033c4.962,2.49,6.127,5.596,4.544,12.109
		c-0.361-0.034-0.722-0.067-1.084-0.101C545.238,424.333,545.724,419.827,540.03,417.914z"/>
	<path fill="#403A30" d="M433.303,202.832c-0.408,0.31-0.817,0.621-1.225,0.931c-1.899-1.25-5.207,0.681-6.153-2.725
		C428.445,201.382,430.987,201.64,433.303,202.832z"/>
	<path fill="#FEE488" d="M323.378,380.05c1.301,0.025,2.602,0.051,3.903,0.076c1.608,1.699,3.922,1.652,5.931,2.26
		c3.059,0.925,4.45,2.836,4.01,5.879c-1.014,7.01-1.269,14.131-3.125,21.021c-1.144,4.246-3.92,7.607-6.07,11.284
		c-1.207,2.064-3.795,2.465-6.129,2.784c-8.991,1.312-17.956,2.819-27.04,3.41c-2.034-0.427-4.09-0.263-6.142-0.243
		c-6.066,1.222-12.208,0.92-18.335,0.987c-2.007,0.022-3.182-0.656-3.269-2.763c0.692-4.611,0.8-9.236,0.159-13.862
		c-1.102-8.284-5.049-14.588-12.753-18.274c-2.434-1.717-2.069-3.212,0.484-4.272c7.328-3.044,14.434-6.692,22.274-8.378
		c2.087-1.975,5.193-1.428,7.439-3.007c5.981-0.516,11.668-2.547,17.583-3.41c1.408-0.532,2.89-0.922,4.292-0.239
		C312.029,375.948,318.03,377.187,323.378,380.05z"/>
	<path fill="#2C2924" d="M326.978,204.918c-3.627,1.474-7.254,2.949-11.181,4.545c3.747,4.615,7.916,8.653,9.763,14.323
		c-3.022-3.976-6.124-7.852-9.451-11.542c-1.133-1.257-1.91-2.293-4.086-1.36c-11.807,5.065-22.841,11.376-33.159,19.385
		c3.581,3.139,7.659,5.443,9.199,10.117c-2.745-2.448-5.523-4.86-8.223-7.357c-1.629-1.507-2.881-1.388-4.635,0.063
		c-8.621,7.132-16.412,15.06-23.657,23.573c-1.857,2.182-1.502,3.104,0.895,4.273c3.254,1.586,6.35,3.497,9.312,5.687
		c-3.863-0.537-6.957-2.853-10.182-4.71c-2.226-1.281-3.414-1.07-4.84,1.039c-4.557,6.737-9.28,13.362-13.939,20.03
		c-0.263,0.29-0.532,0.281-0.804,0.013c1.204-4.384,4.428-7.587,6.668-11.365c1.307-2.204,3.259-4.083,3.313-6.886
		c1.064-0.754,1.634-1.894,2.472-3.085c-0.993-0.18-1.596,1.018-2.458,0.472c0.044-3.208,1.418-5.293,4.044-4.635
		c2.716,0.681,3.574-0.711,4.797-2.204c5.17-6.312,10.816-12.171,16.846-17.66c1.239-1.128,2.42-2.245,3.108-3.821
		c0.977-2.235,2.366-4.001,5.097-4.104c1.818-0.069,2.951-1.437,4.266-2.403c7.371-5.416,15.134-10.181,23.316-14.27
		c2.044-1.021,4.396-1.627,5.486-4.003c0.189-0.411,0.74-0.99,1.065-0.955c6.14,0.669,11.105-3.654,17-3.957
		c0.344,0.191,0.454,0.372,0.33,0.545C327.221,204.833,327.101,204.918,326.978,204.918z"/>
	<path fill="#261013" d="M289.011,426.151c1.911-0.094,3.822-0.188,5.733-0.282c0.814-0.466,1.347,0.038,1.887,0.534
		c2.468,2.301,5.311,0.996,8.037,0.846c5.484-0.3,10.517-2.949,16.039-3.068c0.499,0.158,0.904,0.448,1.216,0.866
		c-7.034,4.313-14.857,5.335-22.838,4.933c-3.856-0.194-5.554,1.209-6.825,4.669c-5.631,15.321-9.83,30.957-11.314,47.259
		c-0.149,1.635-0.044,3.394-1.845,4.335c1.117-18.544,5.597-36.314,12.353-53.56c0.662-1.69,1.343-3.373,2.098-5.267
		c-1.663-0.208-3.102-0.388-4.54-0.568c-0.344-0.154-0.458-0.308-0.344-0.464C288.78,426.229,288.894,426.151,289.011,426.151z"/>
	<path fill="#35332E" d="M223.997,284.888c-7.078,3.9-9.758,10.878-6.913,17.999c3.178,7.956,10.317,9.497,19.709,3.469
		c-1.559,2.559-1.056,4.191,0.201,5.85c3.903,5.151,7.67,10.405,11.489,15.62c-0.378,0.515-0.816,0.572-1.314,0.172
		c-4.438-4.71-8.061-10.043-11.687-15.369c-0.958-1.408-1.545-2.309-3.823-1.567c-7.351,2.396-14.119-1.291-16.446-8.453
		c-2.637-8.115,1.033-16.164,8.663-18.999C224.359,283.994,224.4,284.42,223.997,284.888z"/>
	<path fill="#3C392C" d="M277.274,379.958c-7.383,3.047-14.739,6.161-22.163,9.106c-2.944,1.168-1.435,1.914,0.042,2.832
		c-0.218,0.797-0.727,1.305-1.519,1.536c-6.835-0.545-12.117-4.123-16.896-8.68c0.174-0.896,0.611-1.354,1.569-0.94
		c8.031,7.177,15.927,4.974,24.457,0.493C267.112,382.021,271.767,379.101,277.274,379.958z"/>
	<path fill="#36322B" d="M216.968,406.343c1.674-3.226,2.697-3.861,9.38-5.757c-2.64-2.364-7.955-2.152-7.177-7.551
		c1.412-0.264,1.984,0.968,2.893,1.606c2.295,2.026,5.288,2.487,7.991,3.602c2.355,0.971,5.095,1.835,1.673,4.922
		c-0.971,0.876-0.495,2.528-1.105,3.705c-0.345,0.649-0.854,1.117-1.538,1.389c-2.993,0.208-1.157-5.149-4.922-4.207
		c-2.459,0.615-4.106,2.752-6.593,3.225C217.042,407.177,216.841,406.865,216.968,406.343z"/>
	<path fill="#23201C" d="M237.834,447.083c-2.314-0.983-4.292-1.137-7.064-0.379c-8.474,2.314-13.265-2.424-11.845-11.595
		c-0.271-1.584,0.738-1.573,1.821-1.466c1.619,1.309,0.644,3.042,0.722,4.595c0.148,2.945,1.584,4.977,4.323,5.964
		c3.221,1.161,5.521-0.426,5.452-3.876c-0.048-2.352-0.094-4.591,1.61-6.463c0.486-0.186,0.951-0.137,1.404,0.109
		c1.438,4.104,0.992,8.985,4.977,12.04C239.166,446.89,238.929,447.549,237.834,447.083z"/>
	<path fill="#1F1D1A" d="M289.011,426.151c-0.005,0.232-0.004,0.465,0.001,0.697c-4.724,1.947-9.717,1.026-14.587,1.285
		c-3.923,0.209-7.592,0.33-11.149,2.743c-2.596,1.761-6.118,2.157-9.227,3.162c-1.131,0.333-1.283-0.331-1.231-1.205
		c0.407-0.749,0.993-1.425,1.801-1.591c6.097-1.255,10.896-4.045,12.75-10.456c1.725,0.808,1.107,2.128,0.744,3.391
		c-0.527,2.712,1.073,2.878,3.139,2.767C277.169,426.628,283.091,426.409,289.011,426.151z"/>
	<path fill="#4A4338" d="M221.504,434.171c-1.016-0.117-1.993-0.128-2.578,0.938c-3.077-0.939-6.266-1.714-7.65-5.162
		c0.217-0.811,0.644-1.329,1.581-1.142c1.251,0.475,2.123,1.563,3.337,2.1c3.907,1.729,6.861,0.077,7.432-4.193
		c0.218-1.633-0.134-3.364,0.432-4.913c0.746-2.042,1.629-4.345,4.45-1.967c0.158,0.511,0.206,1.027,0.159,1.558
		c-0.515,2.429,0.083,5.001-0.682,7.341C226.99,431.776,226.208,435.408,221.504,434.171z"/>
	<path fill="#353124" d="M323.378,380.05c-4.586-0.807-8.946-2.383-13.062-4.459c-2.641-1.332-5.232-1.838-8.084-1.459
		c-1.071,0.482-1.319-0.039-1.213-0.994c0.24-0.596,3.215,0.325,0.972-1.55c-1.429-1.195-3.274-1.892-4.932-2.813
		c-0.097-0.773-0.063-1.386,0.962-0.786c7.494,3.708,14.936,7.548,23.02,9.858C322.328,378.215,322.981,378.91,323.378,380.05z"/>
	<path fill="#3D3A35" d="M212.141,428.729c-0.288,0.406-0.577,0.812-0.865,1.218c-2.312-7.765-0.055-14.925,2.977-21.957
		c0.457-1.06,1.277-1.973,2.712-1.649c0.003,0.003,0.016,0.117,0.016,0.117c0.344,0.355,0.762,0.756,0.515,1.268
		c-2.934,6.096-3.787,12.661-4.428,19.281C213.003,427.678,212.612,428.242,212.141,428.729z"/>
	<path fill="#38342D" d="M247.169,327.998c0.438-0.057,0.876-0.115,1.314-0.172c6.422,6.92,13.079,13.602,20.077,19.942
		c-0.422,0.592-0.917,0.661-1.485,0.206C259.652,342.101,253.05,335.409,247.169,327.998z"/>
	<path fill="#2F2C27" d="M353.146,203.965c-1.802-3.554-4.558-3.837-8.183-3.011c-1.909,0.435-4.216,2.56-6.255-0.001
		c4.893-1.339,9.424-5.683,14.946-1.799c-2.676,1.532,0.121,2.579,0.342,3.855C354.498,204.026,353.969,204.126,353.146,203.965z"/>
	<path fill="#383530" d="M220.788,395.009c-0.539-0.658-1.078-1.316-1.618-1.974c1.089-6.517,5.771-8.536,11.529-9.207
		c1.044-0.328,2.066-0.592,2.521,0.839c-0.318,0.826-0.982,1.426-1.769,1.546C226.123,387.025,222.856,390.275,220.788,395.009z"/>
	<path fill="#423F2E" d="M301.019,373.138c0.404,0.331,0.808,0.662,1.213,0.994c-5.841,0.932-11.356,3.887-17.518,2.819
		C289.961,374.875,295.482,373.973,301.019,373.138z"/>
	<path fill="#3F3C37" d="M267.076,347.974c0.495-0.069,0.99-0.137,1.484-0.206c4.306,3.757,9.713,6.197,13.151,10.992
		C276.036,356.246,271.638,351.999,267.076,347.974z"/>
	<path fill="#3B352A" d="M223.997,284.888c-0.041-0.426-0.081-0.852-0.122-1.278c2.705-0.205,5.41-0.409,8.115-0.614
		c0.268-0.037,0.536-0.041,0.804-0.013c0.293,2.282,3.67,2.154,3.729,5.338C232.641,285.199,228.586,283.846,223.997,284.888z"/>
	<path fill="#35322D" d="M237.834,447.083c0.384-0.313,0.768-0.625,1.151-0.938c3.467-1.716,7.561-2.242,10.268-5.407
		c0.916,0.197,1.342,0.686,0.983,1.644C247.601,447.772,244.345,449.006,237.834,447.083z"/>
	<path fill="#1E1D19" d="M326.978,204.918c0.035-0.265,0.046-0.53,0.032-0.797c3.472-1.818,7.296-2.385,11.075-3.114
		C335.142,204.464,330.758,203.834,326.978,204.918z"/>
	<path fill="#423F3A" d="M298.021,367.989c-0.321,0.262-0.641,0.524-0.962,0.786c-3.777-1.886-7.454-3.937-10.798-6.539
		C291.162,362.149,294.083,366.108,298.021,367.989z"/>
	<path fill="#EBEBEB" d="M241.986,262.133c1.587-0.988,1.88-4.14,5.193-2.747c-1.557,2.077-1.757,5.147-5.206,5.361
		C241.977,263.875,241.982,263.004,241.986,262.133z"/>
	<path fill="#565046" d="M250.237,442.382c-0.348-0.448-0.696-0.896-1.043-1.344c-1.907-4.611-0.775-6.889,3.876-7.802
		c0.327,0.268,0.653,0.535,0.98,0.803C250.554,435.803,251.636,439.66,250.237,442.382z"/>
	<path fill="#57544D" d="M232.958,384.759c-0.753-0.31-1.506-0.621-2.259-0.931c2.533-1.316,5.069-1.406,7.609-0.017
		c-0.426,0.348-0.852,0.695-1.278,1.043C235.642,386.158,234.282,386.207,232.958,384.759z"/>
	<path fill="#26170F" d="M322.033,422.118c7.67-0.891,8.513-7.859,10.529-12.982c2.528-6.423,2.445-13.62,3.251-20.526
		c0.429-3.676-0.659-5.422-4.426-6.018c-1.352-0.214-4.029,0.412-4.107-2.466c8.238,1.973,16.475,3.946,24.712,5.92
		c0.341,0.423,0.514,0.905,0.528,1.446c-1.069,8.576-1.946,17.178-4.554,25.496c-1.563,4.985-0.419,6.437,4.827,7.47
		c2.28,0.449,5.196-0.643,6.589,2.356c-1.889,0.105-3.778,0.209-5.669,0.315c-1.49-0.101-3.035,0.016-4.452-0.357
		c-1.845-0.486-2.615-0.107-3.162,1.83c-1.22,4.322-3.9,7.249-8.702,7.557c-4.962,0.319-7.951-2.68-9.256-6.795
		c-1.102-3.476-2.629-1.073-4.037-1.02C323.107,423.889,321.726,423.789,322.033,422.118z"/>
	<path fill="#342F19" d="M322.033,422.118c0.69,0.741,1.381,1.483,2.071,2.225c-0.727,0.235-1.454,0.468-2.181,0.702
		c-0.384-0.05-0.768-0.101-1.152-0.152c-5.586-0.215-10.821,2.093-16.325,2.312c-2.81,0.112-5.74,1.894-8.472-0.323
		c-0.41-0.338-0.821-0.676-1.231-1.014C303.84,424.618,312.937,423.368,322.033,422.118z"/>
	<path fill="#EDEDED" d="M390.012,196.761c2.688-4.062,4.555-2.95,6.834,0C394.581,196.761,392.761,196.761,390.012,196.761z"/>
	<path fill="#FEFEFE" d="M283.875,294.225c0.028-0.418,0.055-0.837,0.083-1.255c1.842-11.751,9.557-18.733,19.547-23.7
		c2.782-1.383,5.904-2.124,9-2.729c11.662-1.705,22.107,1.213,30.977,8.866c6.05,5.22,9.705,12.039,10.968,20.027
		c0.05,2.737,0.069,5.472-0.01,8.209c-0.943,3.768-1.474,7.684-3.962,10.893c-3.371,1.47-6.882,1.056-10.269,0.389
		c-2.821-0.556-5.608-0.42-8.416-0.511c-8.243-0.032-16.485,0.007-24.721-0.012c-2.166,0.104-4.395-0.41-6.471,0.641
		c-2.953,1.439-6.185,1.316-9.334,1.675c-2.874,0.221-4.581-1.216-5.534-3.821c-1.35-3.69-2.701-7.373-2.724-11.381
		C283.272,299.081,282.333,296.505,283.875,294.225z"/>
	<path fill="#FEFEFE" d="M437.9,319.864c-0.032-3.296-0.064-6.592-0.096-9.887c-1.123-6.675,2.99-11.27,6.677-15.814
		c4.914-6.056,11.715-9.122,19.262-10.634c3.484-0.024,6.966-0.019,10.446-0.004c15.595,2.538,24.861,11.705,28.27,27.005
		c0.043,2.626,0.038,5.252,0.004,7.877c-0.86,3.809-1.827,7.582-3.804,11.006c-1.633,4.271-4.474,5.28-8.657,3.495
		c-2.889-1.233-5.945-2.073-8.974-2.938c-3.279-0.69-6.431-1.846-9.685-2.634c-5.807-1.137-11.575-2.493-17.497-2.949
		c-1.442,0.056-2.869-0.046-4.29-0.289c-2.717-0.977-5.577-0.488-8.347-0.844C439.345,323.017,436.888,323.043,437.9,319.864z"/>
	<path fill="#FEE488" d="M359.382,422.815c-3.245-0.56-6.47-1.344-9.739-1.62c-3.724-0.314-4.563-2.902-3.771-5.457
		c2.853-9.198,4.158-18.643,5.376-28.128c0.027-0.212,0.49-0.368,0.75-0.55c6.112,0.538,12.216,1.123,18.122,2.931
		c1.134-0.872,2.406-1.206,3.82-0.979c2.305,3.552,5.986,1.846,8.938,1.943c3.852,0.125,4.872,1.472,4.52,5.061
		c-0.567,5.781-0.43,11.604-1.251,17.392c-1.099,7.754-2.882,9.52-10.834,9.493C370.003,422.883,364.692,422.844,359.382,422.815z"
		/>
	<path fill="#FDE2B5" d="M449.923,323.071c1.332-0.016,2.663-0.031,3.995-0.047c5.368,2.098,11.156,2.207,16.687,3.527
		c3.254,0.726,6.355,2.015,9.642,2.621c3.939,1.213,7.887,2.377,11.762,3.811c2.739,1.014,2.482,2.183,0.692,3.764
		c-4.62,4.081-9.511,7.663-15.943,8.255c-0.293,0.399-0.586,0.797-0.879,1.196c-3.156-0.03-6.305-0.331-9.463-0.217
		c-13.95-1.917-23.824-9.029-28.688-22.523C441.72,320.972,445.879,323.858,449.923,323.071z"/>
	<path fill="#050403" d="M410.94,341.889c-1.332,1.643-3.745,2.947-0.813,5.559c0.363,0.323-2.614,3.837-5.451,4.886
		c-0.562-1.529,1.712-1.628,1.105-2.927c-2.731-0.677-6.463,0.255-7.764-3.524c-0.682-1.981-0.475-3.976,1.941-4.911
		C403.662,340.762,407.478,339.199,410.94,341.889z"/>
	<path fill="#2F2C29" d="M353.882,295.032c-4.336-18.843-20.337-30.141-41.515-27.885c-1.003,0.433-1.4,0.036-1.343-0.981
		c21.565-3.197,39.235,7.65,43.753,26.88c0.148,0.631,0.071,1.315,0.098,1.975C354.55,295.471,354.219,295.497,353.882,295.032z"/>
	<path fill="#373228" d="M349.929,316.987c-8.44,13.664-25.719,20.033-41.351,15.243c0.229-0.828,0.788-1.341,1.564-1.651
		c3.801-0.121,7.601,0.301,11.407,0.106c9.258-0.474,16.771-4.636,23.22-11.026c1.16-1.149,1.973-2.704,3.731-3.145
		C349.048,316.454,349.524,316.612,349.929,316.987z"/>
	<path fill="#353027" d="M309.996,331.29c-0.473,0.313-0.945,0.626-1.418,0.94c-13.04-2.921-23.878-14.297-25.728-27.005
		c-0.076-1.176-1.299-2.704,0.97-3.16c0.513,2.553,0.846,5.16,1.587,7.645c0.89,2.987,2.077,5.919,5.897,6.239
		c0.487,0.861-1.119,1.366,0.215,2.861C296.682,324.592,303.717,327.331,309.996,331.29z"/>
	<path fill="#2B2822" d="M476.759,345.001c6.193-2.353,12.342-4.779,17.097-10.678c-4.835-1.545-9.325-2.979-13.815-4.413
		c-0.126-0.989,0.157-1.514,1.259-1.11c3.109,0.927,6.417,1.455,9.278,2.881c3.763,1.876,6.011,0.971,7.618-2.62
		c0.809-0.12,1.397-0.052,0.836,0.988c-4.26,7.806-11.253,12.249-19.137,15.63C478.591,346.238,477.713,345.641,476.759,345.001z"/>
	<path fill="#33312D" d="M311.024,266.166c0.448,0.327,0.895,0.654,1.343,0.981c-14.394,3.189-24.009,11.636-28.408,25.822
		c-2.176-1.665-0.329-3.453,0.225-4.773C289.232,276.181,298.085,268.645,311.024,266.166z"/>
	<path fill="#2F2C27" d="M463.04,284.145c-6.788,2.153-13.233,4.881-18.046,10.459c-3.844,4.455-6.78,9.315-7.189,15.371
		c-2.519,2.081-1.862-0.278-1.652-1.303c1.47-7.186,5.129-13.145,10.618-17.935c4.666-4.072,9.964-6.936,16.251-7.619
		c0.333,0.223,0.446,0.449,0.341,0.679C463.257,284.029,463.149,284.145,463.04,284.145z"/>
	<path fill="#34312B" d="M501.806,310.052c-3.538-14.312-12.769-22.709-26.962-25.951c0.119-0.603,0.703-0.648,1.101-0.916
		c14.233,2.385,24.994,13.121,26.905,26.843C502.513,310.475,502.165,310.483,501.806,310.052z"/>
	<path fill="#322D24" d="M438.402,323.876c5.126,12.328,14.271,19.461,27.52,21.287c-0.004,1.959-1.347,1.096-2.285,1.085
		c-13.089-2.35-22.003-9.671-26.498-22.254C437.508,323.39,437.929,323.351,438.402,323.876z"/>
	<path fill="#413A2E" d="M332.064,264.764c-10.764-3.213-20.861-7.895-30.349-13.961c10.305,4.874,20.881,9.053,31.542,13.024
		C333.126,264.479,332.521,264.528,332.064,264.764z"/>
	<path fill="#332E24" d="M404.497,302.605c3.172,3.762,6.352,7.518,9.51,11.293c0.635,0.759,1.323,1.549,0.374,2.588
		c-2.618,2.864-4.657,6.277-8.621,7.996c1.929-2.322,3.763-4.733,5.821-6.935c1.417-1.516,1.454-2.599,0.041-4.174
		c-2.847-3.173-5.483-6.534-8.206-9.818C403.777,303.238,404.137,302.922,404.497,302.605z"/>
	<path fill="#463E31" d="M410.94,341.889c-3.52-1.988-7.347-0.308-10.982-0.917c3.964-2.123,8.367-0.195,12.734-1.292
		c-1.14-2.604-4.033-3.838-5.135-7.489c3.951,2.65,6.027,5.688,8.491,8.43C414.562,342.595,412.559,341.429,410.94,341.889z"/>
	<path fill="#1B1916" d="M349.929,316.987c-0.353-0.005-0.707-0.01-1.06-0.015c-5.481-1.039-11.33,0.485-16.554-2.373
		c-0.478-0.395-0.584-0.876-0.323-1.437c5.022,0.309,10.045,0.596,15.065,0.942c1.321,0.091,2.608,0.218,3.785-0.552
		c0.57,0.456,0.645,0.984,0.226,1.581C350.689,315.751,350.309,316.369,349.929,316.987z"/>
	<path fill="#201D13" d="M370.121,389.991c-6.095-0.64-12.203-1.204-18.122-2.931c-0.002-0.338-0.004-0.676-0.005-1.014
		c5.058,0.694,10.12,1.358,15.17,2.103C368.357,388.325,370.02,387.968,370.121,389.991z"/>
	<path fill="#423B2F" d="M487.971,274.85c-4.886,1.335-9.744,2.819-14.824,3.076c-0.098-0.405-0.195-0.811-0.293-1.216
		c4.54-0.974,9.079-1.948,13.619-2.922C487.422,273.507,488.036,273.7,487.971,274.85z"/>
	<path fill="#2B2722" d="M438.402,323.876c-0.421,0.039-0.842,0.078-1.264,0.117c-0.353-1.245-0.976-2.485-0.997-3.735
		c-0.035-2.085,1.043-0.771,1.759-0.391c0.073,2.664,2.173,1.726,3.559,1.945c2.817,0.445,5.815-0.34,8.463,1.259
		c-2.024,2.039-4.253,0.108-6.372,0.327C441.836,323.575,439.992,322.342,438.402,323.876z"/>
	<path fill="#28231C" d="M230.187,291.866c1.938,0.472,3.604,1.279,4.538,3.574c-5.406-2.43-5.406-2.43-7.059,5.301
		c-0.879-3.008-0.879-3.008,0.273-7.657C227.833,291.098,229.028,291.515,230.187,291.866z"/>
	<path fill="#443C30" d="M353.146,203.965c0.283-0.319,0.566-0.637,0.85-0.956c2.748,3.332,5.539,6.634,7.642,10.414
		c-0.343,0.273-0.687,0.546-1.03,0.818C358.121,210.815,355.633,207.39,353.146,203.965z"/>
	<path fill="#373128" d="M441.225,214.981c0.27-0.026,0.539-0.022,0.807,0.012c2.198,4.046,0.647,8.391,1.855,12.516
		c-0.547,0.061-1.095,0.122-1.642,0.183C441.905,223.455,441.565,219.218,441.225,214.981z"/>
	<path fill="#1A1813" d="M464.05,279.143c-4.348,1.308-8.791,1.001-13.19,1.437c-0.039-0.426-0.077-0.851-0.116-1.277
		c4.419-0.378,8.839-0.756,13.258-1.134c0.346,0.2,0.468,0.411,0.367,0.633C464.267,279.029,464.161,279.143,464.05,279.143z"/>
	<path fill="#5C5241" d="M463.637,346.247c0.762-0.362,1.524-0.723,2.285-1.085c3.39-0.339,6.766-0.538,9.958,1.034
		C471.804,347.454,467.723,347.441,463.637,346.247z"/>
	<path fill="#5A544B" d="M283.819,302.064c-1.006,0.844-0.645,2.107-0.97,3.16c-0.761-3.77-2.479-7.629,1.025-11
		C283.857,296.838,283.838,299.451,283.819,302.064z"/>
	<path fill="#232019" d="M332.064,264.764c0.398-0.312,0.795-0.625,1.193-0.937c4.108,1.108,8.217,2.217,12.325,3.325
		C340.728,267.916,336.436,266.146,332.064,264.764z"/>
	<path fill="#48453F" d="M499.032,330.049c-0.279-0.329-0.557-0.659-0.836-0.988c1.213-3.421,2.427-6.842,3.64-10.263
		c0.641,0.106,0.7,0.724,0.997,1.133C502.444,323.633,501.402,327.091,499.032,330.049z"/>
	<path fill="#373127" d="M528.869,331.066c1.881-3.915,5.122-6.102,9.33-7.086C535.089,326.342,531.979,328.704,528.869,331.066z"/>
	<path fill="#373228" d="M351.069,315.133c-0.075-0.527-0.151-1.054-0.226-1.581c1.025-3.226,2.049-6.451,3.074-9.677
		c0.438,0.236,0.732,0.591,0.883,1.066C354.375,308.638,353.457,312.154,351.069,315.133z"/>
	<path fill="#16140C" d="M435.005,387.874c-2.996,0.874-5.838,3.019-9.172,1.119c2.986-1.015,6.031-1.739,9.193-1.895
		c0.223,0.179,0.295,0.353,0.214,0.524C435.16,387.79,435.082,387.874,435.005,387.874z"/>
	<path fill="#4A4235" d="M487.971,274.85c-0.499-0.354-0.998-0.708-1.497-1.062c2.97-0.931,5.941-1.863,8.912-2.794
		C493.539,274.016,490.593,274.038,487.971,274.85z"/>
	<path fill="#5B5140" d="M230.187,291.866c-0.838,0.241-1.832,0.197-2.248,1.217c-1.916,0-3.833,0-5.749,0
		C224.638,290.31,227.372,290.703,230.187,291.866z"/>
	<path fill="#0F0E0D" d="M475.945,283.185c-0.367,0.305-0.734,0.611-1.101,0.916c-3.935,0.015-7.87,0.029-11.805,0.044
		c-0.006-0.342-0.012-0.685-0.018-1.027C467.333,282.532,471.64,282.597,475.945,283.185z"/>
	<path fill="#0F0F0A" d="M435.005,387.874c0.014-0.259,0.021-0.518,0.021-0.777c2.341-0.699,4.683-1.398,7.024-2.098
		C440.683,388.364,437.565,387.434,435.005,387.874z"/>
	<path fill="#5F5443" d="M521.864,293.837c0.434,0.944,1.101,1.373,2.145,0.974c-0.065,0.497-0.131,0.997-0.197,1.497
		c-2.138-0.159-1.357,3.08-3.698,2.946C519.976,297.218,520.982,295.545,521.864,293.837z"/>
	<path fill="#655B3A" d="M419.898,390.847c-1.036-0.35-2.071-0.699-3.107-1.049c2.751-1.47,5.492-0.505,8.235,0.033
		C423.618,391.689,421.69,390.924,419.898,390.847z"/>
	<path fill="#12100C" d="M502.833,319.931c-0.332-0.378-0.665-0.755-0.997-1.133c-0.01-2.915-0.02-5.831-0.029-8.746
		c0.348-0.008,0.696-0.016,1.044-0.024C503.357,313.33,503.281,316.631,502.833,319.931z"/>
	<path fill="#171511" d="M464.05,279.143c-0.017-0.325-0.033-0.649-0.047-0.974c2.275-0.054,4.469-1.52,7.667-0.387
		C468.764,279.249,466.39,279.109,464.05,279.143z"/>
	<path fill="#11100D" d="M354.8,304.941c-0.294-0.355-0.589-0.711-0.883-1.066c-0.012-2.947-0.023-5.895-0.035-8.842
		c0.332,0.013,0.663,0.009,0.994-0.012C355.318,298.331,355.342,301.638,354.8,304.941z"/>
	<path fill="#121009" d="M405.835,420.997l-0.454-0.003c0,0-0.454,0.021-0.454,0.021c0-4.078,0-8.156,0-12.234
		C406.205,412.812,406.305,416.888,405.835,420.997z"/>
	<path fill="#413A2E" d="M511.748,417.387c-1.228-2.991-3.161-4.997-7.251-4.408c3.985-2.632,5.698-1.853,8.207,3.101
		C512.511,416.607,512.466,417.243,511.748,417.387z"/>
	<path fill="#2C2820" d="M511.748,417.387c0.319-0.436,0.637-0.871,0.956-1.307c0.848,3.244,1.541,6.484-0.572,9.699
		C512.004,422.981,511.876,420.184,511.748,417.387z"/>
	<path fill="#C92040" d="M387.06,418.892c1.022-8.556,2.071-16.124,1.898-23.749c-0.095-4.185,2.613-3.592,4.963-3.287
		c2.461,0.32,6.32-1.773,6.237,3.652c-0.123,7.985-1.067,15.833-2.587,23.893C394.264,417.964,390.972,417.173,387.06,418.892z"/>
	<path fill="#F0FC65" d="M398.872,427.093c-0.02,4.342-3.446,8.073-7.279,7.927c-3.751-0.143-6.648-3.583-6.656-7.906
		c-0.008-4.595,3.06-7.975,7.139-7.865C395.723,419.347,398.89,423.004,398.872,427.093z"/>
	<path fill="#FCE2B6" d="M512.881,434.609c4.445-0.573,7.958-1.832,10.935-4.473c1.203-1.067,13.614-0.746,14.98,0.145
		c1.413,0.922,1.306,2.248,0.85,3.535c-1.614,4.555-4.466,7.666-9.605,8.13C525.804,442.328,516.539,438.587,512.881,434.609z"/>
	<path fill="#2A2619" d="M254.022,392.852c0.378-0.319,0.755-0.637,1.133-0.956c8.235,3.12,12.034,9.461,12.981,17.874
		c0.33,1.244,0.909,2.534-0.635,3.429c-1.419-0.368-1.542-1.635-1.76-2.729c-1.319-6.642-4.23-12.193-10.384-15.621
		C254.623,394.44,254.143,393.735,254.022,392.852z"/>
	<path fill="#4E462D" d="M267.179,412.97c1.042-0.85,0.626-2.137,0.957-3.2c1.385,4.805,1.295,9.607-0.022,14.408
		c-0.308-1.046-0.617-2.093-0.925-3.139C264.944,418.352,264.951,415.662,267.179,412.97z"/>
	<path fill="#E3CF82" d="M295.975,426.883c6.598-0.814,13.192-1.675,19.799-2.411c1.654-0.184,3.489-1.476,4.998,0.422
		c-7.405,2.249-14.842,4.308-22.702,3.907C296.446,428.718,296.446,428.709,295.975,426.883z"/>
	<path fill="#FDE2B5" d="M267.179,412.97c0.003,2.69,0.007,5.379,0.01,8.069c0.566,6.262-3.094,8.884-8.548,10.141
		c-1.913,0.441-3.717,1.357-5.571,2.056c-3.283,1.611-4.101,4.448-3.876,7.802c-1.551,5.403-5.872,5.269-10.208,5.107
		c-6.46-2.084-4.777-7.49-4.952-12.138c0.047-2.896,1.503-4.852,3.746-6.218c-3.947-1.378-8.368-2.691-9.771-7.824
		c-1.724-0.797-2.819-0.351-3.016,1.62c-0.098,0.984-0.104,1.988-0.034,2.975c0.242,3.392,0.545,6.874-3.671,8.142
		c-4.068,1.223-7.051-0.452-9.146-3.973c-0.297-7.839,0.45-15.451,4.84-22.272c0.706-0.384,1.458-0.703,2.108-1.165
		c2.195-1.558,4.772-2.97,7.245-2.843c3.434,0.176,0.432,4.329,2.579,5.739c2.024,2.474,4.22,4.722,7.2,5.552
		c-2.583-1.564-6.477-2.204-6.294-6.718c0.116-2.515-1.788-6.171,4.722-5.535c-5.19-3.048-10.527-2.642-13.752-6.478
		c-0.464-5.17,2.366-7.763,6.999-8.944c1.723-0.439,3.448-0.871,5.171-1.306c1.357,0.032,2.715,0.063,4.072,0.095
		c5.678,2.635,10.548,6.989,16.992,7.998C263.049,396.523,266.314,403.961,267.179,412.97z"/>
	<path fill="#383228" d="M229.819,407.021c1.882,5.285,6.381,6.138,11.5,6.334c-4.499,2.843-9.556,0.573-12.406-5.167
		C229.215,407.799,229.517,407.41,229.819,407.021z"/>
	<path fill="#FAE0B5" d="M221.504,434.171c4.439-0.842,5.296-4.075,5.5-7.929c0.091-1.72-1.454-3.835,0.95-5.147
		c1.676,0.591,1.941,2.506,3.423,3.438c5.534,3.48,5.476,3.572,1.756,9.475c-0.251,1.795-0.893,3.642-0.664,5.374
		c0.36,2.721,1.282,5.49-2.546,6.218c-3.581,0.682-7.058,0.491-8.901-3.457C219.755,439.43,219.561,436.72,221.504,434.171z"/>
	<path fill="#2E2920" d="M233.133,434.008c2.293-4.047,3.019-7.547-2.657-9.498c-1.244-0.427-2.183-1.898-2.522-3.415
		c0.018-0.377,0.036-0.753,0.054-1.13c5.241,5.214,5.439,5.328,13.875,8.263c-5.442-1.392-5.638,3.377-7.849,5.779
		c0,0-0.45,0.003-0.45,0.003L233.133,434.008z"/>
	<path fill="#C92040" d="M344.46,414.27c-2.726-1.943-5.186-3.647-8.391-3.301c-2.104,0.227-2.001-1.14-1.64-2.582
		c1.698-6.78,2.704-13.658,2.687-20.652c-0.006-2.546,1.142-3.2,3.405-2.703c1.94,0.426,3.886,0.821,5.834,1.21
		c2.15,0.43,2.9,1.644,2.802,3.886C348.801,398.274,347.024,406.101,344.46,414.27z"/>
	<path fill="#F1FD66" d="M345.041,421.41c0.083,5.162-3.686,9.51-8.182,9.437c-4.241-0.069-7.924-4.349-7.927-9.212
		c-0.003-5.047,3.461-8.962,7.954-8.99C341.614,412.615,344.957,416.209,345.041,421.41z"/>
	<path fill="#FCE2B5" d="M332.003,314.032c4.049,0.428,8.113,0.751,12.139,1.336c1.62,0.235,3.682-0.451,4.728,1.604
		c-10.151,12.394-23.037,17.361-38.873,14.318c-7.499-1.982-13.811-5.842-18.975-11.67c-1.374-1.55-1.503-2.574,0.283-3.672
		c2.682-1.855,6.127-0.3,8.848-1.977c2.748,0.003,5.505,0.154,8.225-0.459C316.253,313.833,324.151,312.87,332.003,314.032z"/>
	<path fill="#100E0D" d="M332.003,314.032c-8.283,0.05-16.565,0.1-24.848,0.149c-1.041,0.343-1.304-0.121-1.103-1.064
		c8.648-0.454,17.295-0.646,25.941,0.045C331.983,313.452,331.986,313.742,332.003,314.032z"/>
	<path fill="#121111" d="M325.065,295.975c-0.269,1.666-1.153,2.91-2.888,2.771c-1.711-0.137-2.51-1.448-2.424-3.16
		c0.088-1.744,0.94-2.821,2.809-2.687C324.438,293.034,325.001,294.318,325.065,295.975z"/>
	<path fill="#57534C" d="M306.052,313.117c0.368,0.355,0.735,0.71,1.103,1.064c-2.366,0.952-4.72,1.513-7.004-0.21
		C301.954,312.555,304.018,312.941,306.052,313.117z"/>
	<path fill="#3D3B36" d="M470.545,327.236c-4.992-0.791-9.984-1.588-14.978-2.367c-1.08-0.168-1.884-0.527-1.649-1.845
		c6.08,0.669,12.11,1.634,18.046,3.136C472.047,327.251,471.515,327.531,470.545,327.236z"/>
	<path fill="#212121" d="M477.337,309.069c-0.211,1.632-0.988,2.937-2.731,2.815c-1.646-0.116-2.605-1.34-2.492-3.053
		c0.097-1.479,1.02-2.457,2.498-2.547C476.463,306.17,477.105,307.461,477.337,309.069z"/>
	<path fill="#504B42" d="M470.545,327.236c0.473-0.359,0.947-0.718,1.42-1.076c3.112,0.88,6.223,1.76,9.335,2.64
		c-0.42,0.37-0.84,0.74-1.26,1.11C476.876,329.018,473.71,328.127,470.545,327.236z"/>
</g>
</svg>
